<svg width="61" height="36" viewBox="0 0 61 36" fill="none" xmlns="http://www.w3.org/2000/svg">
<path d="M57.7062 31.8709L59.1153 30.7086L44.1383 11.116L42.6888 12.2782L57.7062 31.8709ZM57.7062 31.8709L59.1153 30.7086L44.1383 11.116L42.6888 12.2782L57.7062 31.8709Z" fill="white"/>
<path fill-rule="evenodd" clip-rule="evenodd" d="M9.83589 19.5009C14.3451 19.5009 18.0894 15.5991 18.0894 10.9084C18.0894 6.21777 14.3451 2.39893 9.83589 2.39893C5.24615 2.39893 1.54211 6.21777 1.54211 10.9084C1.54211 15.6406 5.24615 19.5009 9.83589 19.5009ZM3.43431 10.867C3.43431 14.5612 6.33318 17.633 9.83589 17.633C13.3386 17.633 16.197 14.5612 16.197 10.867C16.197 7.25562 13.2983 4.26679 9.83589 4.26679C6.25265 4.26679 3.43431 7.17252 3.43431 10.867Z" fill="white"/>
<path fill-rule="evenodd" clip-rule="evenodd" d="M30.3977 19.5009C34.9069 19.5009 38.6512 15.5991 38.6512 10.9084C38.6512 6.21777 34.9069 2.39893 30.3977 2.39893C25.808 2.39893 22.1039 6.21777 22.1039 10.9084C22.1039 15.6406 25.808 19.5009 30.3977 19.5009ZM23.9961 10.867C23.9961 14.5612 26.895 17.633 30.3977 17.633C33.9004 17.633 36.7589 14.5612 36.7589 10.867C36.7589 7.25562 33.8602 4.26679 30.3977 4.26679C26.8145 4.26679 23.9961 7.17252 23.9961 10.867Z" fill="white"/>
<path d="M9.15135 31.8709L16.9218 20.9124L15.3516 19.667L7.54102 30.5426L9.15135 31.8709Z" fill="white"/>
<path d="M9.15135 31.8709L16.9218 20.9124L15.3516 19.667L7.54102 30.5426L9.15135 31.8709Z" fill="white"/>
<path d="M29.7131 31.8709L37.4836 20.9124L35.9133 19.667L28.1028 30.5426L29.7131 31.8709Z" fill="white"/>
<path d="M29.7131 31.8709L37.4836 20.9124L35.9133 19.667L28.1028 30.5426L29.7131 31.8709Z" fill="white"/>
<path d="M58.5515 12.2782L52.915 19.7086L51.5461 18.4217L57.1021 11.116L58.5515 12.2782Z" fill="white"/>
<path d="M43.5341 31.8707L49.7744 23.7764L48.3653 22.531L42.1249 30.7084L43.5341 31.8707Z" fill="white"/>
</svg>
