<svg width="30" height="34" viewBox="0 0 30 34" fill="none" xmlns="http://www.w3.org/2000/svg">
<path d="M8.33333 20.4C7.86111 20.4 7.46556 20.2368 7.14667 19.9104C6.82778 19.584 6.66778 19.1805 6.66667 18.7C6.66556 18.2195 6.82555 17.816 7.14667 17.4896C7.46778 17.1632 7.86333 17 8.33333 17C8.80333 17 9.19944 17.1632 9.52167 17.4896C9.84389 17.816 10.0033 18.2195 10 18.7C9.99667 19.1805 9.83667 19.5846 9.52 19.9121C9.20333 20.2396 8.80778 20.4023 8.33333 20.4ZM15 20.4C14.5278 20.4 14.1322 20.2368 13.8133 19.9104C13.4944 19.584 13.3344 19.1805 13.3333 18.7C13.3322 18.2195 13.4922 17.816 13.8133 17.4896C14.1344 17.1632 14.53 17 15 17C15.47 17 15.8661 17.1632 16.1883 17.4896C16.5106 17.816 16.67 18.2195 16.6667 18.7C16.6633 19.1805 16.5033 19.5846 16.1867 19.9121C15.87 20.2396 15.4744 20.4023 15 20.4ZM21.6667 20.4C21.1944 20.4 20.7989 20.2368 20.48 19.9104C20.1611 19.584 20.0011 19.1805 20 18.7C19.9989 18.2195 20.1589 17.816 20.48 17.4896C20.8011 17.1632 21.1967 17 21.6667 17C22.1367 17 22.5328 17.1632 22.855 17.4896C23.1772 17.816 23.3367 18.2195 23.3333 18.7C23.33 19.1805 23.17 19.5846 22.8533 19.9121C22.5367 20.2396 22.1411 20.4023 21.6667 20.4ZM3.33333 34C2.41667 34 1.63222 33.6674 0.98 33.0021C0.327778 32.3368 0.00111111 31.5361 0 30.6V6.8C0 5.865 0.326667 5.06487 0.98 4.3996C1.63333 3.73433 2.41778 3.40113 3.33333 3.4H5V0H8.33333V3.4H21.6667V0H25V3.4H26.6667C27.5833 3.4 28.3683 3.7332 29.0217 4.3996C29.675 5.066 30.0011 5.86613 30 6.8V30.6C30 31.535 29.6739 32.3357 29.0217 33.0021C28.3694 33.6685 27.5844 34.0011 26.6667 34H3.33333ZM3.33333 30.6H26.6667V13.6H3.33333V30.6Z" fill="#EBEBEB"/>
</svg>
