<svg width="167" height="241" viewBox="0 0 167 241" fill="none" xmlns="http://www.w3.org/2000/svg">
<path d="M211.678 71.7409L176.18 128.091L119.333 102.522L154.831 46.4205L211.678 71.7409Z" fill="#869852"/>
<path d="M119.333 102.522L93.2683 56.1019L128.766 0L154.831 46.4206L119.333 102.522Z" fill="#A2B372"/>
<path d="M154.832 46.4206L128.767 0L185.613 25.3203L211.678 71.7409L154.832 46.4206Z" fill="#BBC898"/>
<path d="M140.682 184.441L105.184 240.791L48.3378 215.223L83.8359 158.873L140.682 184.441Z" fill="#869852"/>
<path d="M48.3374 215.223L22.2724 168.802L57.7705 112.452L83.8355 158.873L48.3374 215.223Z" fill="#A2B372"/>
<path d="M83.8354 158.873L57.7704 112.452L114.617 138.021L140.682 184.441L83.8354 158.873Z" fill="#BBC898"/>
<path d="M119.334 102.77L83.8355 158.872L26.9889 133.552L62.487 77.2019L119.334 102.77Z" fill="#869852"/>
<path d="M0.923828 87.1319L26.9889 133.552L62.4869 77.2023L36.4219 30.7817L0.923828 87.1319Z" fill="#A2B372"/>
<path d="M36.4222 30.7817L62.4872 77.2023L119.334 102.771L93.2688 56.3503L36.4222 30.7817Z" fill="#BBC898"/>
</svg>
