<svg width="1280" height="956" viewBox="0 0 1280 956" fill="none" xmlns="http://www.w3.org/2000/svg">
<g clip-path="url(#clip0_549_193)">
<g opacity="0.12">
<line x1="-2.00546" y1="802.533" x2="1278.94" y2="802.533" stroke="white" stroke-width="1.22578"/>
<line x1="-2.00546" y1="724.083" x2="1278.94" y2="724.083" stroke="white" stroke-width="1.22578"/>
<line x1="-144.196" y1="645.633" x2="1421.13" y2="645.633" stroke="white" stroke-width="1.22578"/>
<line x1="-2.00546" y1="880.983" x2="1278.94" y2="880.983" stroke="white" stroke-width="1.22578"/>
<line x1="-243.484" y1="527.958" x2="1521.64" y2="527.958" stroke="white" stroke-width="1.22578"/>
<line x1="-243.484" y1="322.027" x2="1521.64" y2="322.027" stroke="white" stroke-width="1.22578"/>
<line x1="-243.484" y1="223.964" x2="1521.64" y2="223.964" stroke="white" stroke-width="1.22578"/>
</g>
<g opacity="0.12">
<line x1="776.978" y1="1195.4" x2="776.978" y2="880.37" stroke="white" stroke-width="1.22578"/>
<line x1="1203.55" y1="1195.4" x2="1203.55" y2="880.37" stroke="white" stroke-width="1.22578"/>
<line x1="492.597" y1="1195.4" x2="492.597" y2="880.37" stroke="white" stroke-width="1.22578"/>
<line x1="350.407" y1="1352.3" x2="350.407" y2="725.922" stroke="white" stroke-width="1.22578"/>
<line x1="208.216" y1="1462.62" x2="208.216" y2="527.345" stroke="white" stroke-width="1.22578"/>
<line x1="919.169" y1="1195.4" x2="919.169" y2="880.37" stroke="white" stroke-width="1.22578"/>
</g>
<g opacity="0.2">
<g clip-path="url(#clip1_549_193)">
<mask id="path-14-inside-1_549_193" fill="white">
<path d="M863.672 179.325H938.851V422.552H863.672V179.325Z"/>
</mask>
<line x1="825.545" y1="207.832" x2="949.041" y2="150.245" stroke="white" stroke-width="0.631759"/>
<line x1="825.545" y1="354.014" x2="949.041" y2="296.427" stroke="white" stroke-width="0.631759"/>
<line x1="825.545" y1="280.923" x2="949.041" y2="223.336" stroke="white" stroke-width="0.631759"/>
<line x1="825.545" y1="427.105" x2="949.041" y2="369.518" stroke="white" stroke-width="0.631759"/>
<line x1="825.545" y1="218.274" x2="949.041" y2="160.687" stroke="white" stroke-width="0.631759"/>
<line x1="825.545" y1="364.456" x2="949.041" y2="306.869" stroke="white" stroke-width="0.631759"/>
<line x1="825.545" y1="291.365" x2="949.041" y2="233.778" stroke="white" stroke-width="0.631759"/>
<line x1="825.545" y1="437.547" x2="949.041" y2="379.96" stroke="white" stroke-width="0.631759"/>
<line x1="825.545" y1="228.715" x2="949.041" y2="171.128" stroke="white" stroke-width="0.631759"/>
<line x1="825.545" y1="374.897" x2="949.041" y2="317.31" stroke="white" stroke-width="0.631759"/>
<line x1="825.545" y1="301.806" x2="949.041" y2="244.219" stroke="white" stroke-width="0.631759"/>
<line x1="825.545" y1="447.988" x2="949.041" y2="390.401" stroke="white" stroke-width="0.631759"/>
<line x1="825.545" y1="239.157" x2="949.041" y2="181.57" stroke="white" stroke-width="0.631759"/>
<line x1="825.545" y1="385.339" x2="949.041" y2="327.752" stroke="white" stroke-width="0.631759"/>
<line x1="825.545" y1="312.248" x2="949.041" y2="254.661" stroke="white" stroke-width="0.631759"/>
<line x1="825.545" y1="458.43" x2="949.041" y2="400.843" stroke="white" stroke-width="0.631759"/>
<line x1="825.545" y1="249.599" x2="949.041" y2="192.012" stroke="white" stroke-width="0.631759"/>
<line x1="825.545" y1="395.781" x2="949.041" y2="338.194" stroke="white" stroke-width="0.631759"/>
<line x1="825.545" y1="322.69" x2="949.041" y2="265.103" stroke="white" stroke-width="0.631759"/>
<line x1="825.545" y1="468.872" x2="949.041" y2="411.285" stroke="white" stroke-width="0.631759"/>
<line x1="825.545" y1="260.04" x2="949.041" y2="202.453" stroke="white" stroke-width="0.631759"/>
<line x1="825.545" y1="406.222" x2="949.041" y2="348.635" stroke="white" stroke-width="0.631759"/>
<line x1="825.545" y1="333.131" x2="949.041" y2="275.544" stroke="white" stroke-width="0.631759"/>
<line x1="825.545" y1="479.313" x2="949.041" y2="421.726" stroke="white" stroke-width="0.631759"/>
<line x1="825.545" y1="270.482" x2="949.041" y2="212.895" stroke="white" stroke-width="0.631759"/>
<line x1="825.545" y1="416.664" x2="949.041" y2="359.077" stroke="white" stroke-width="0.631759"/>
<line x1="825.545" y1="343.573" x2="949.041" y2="285.986" stroke="white" stroke-width="0.631759"/>
</g>
<path d="M863.672 179.957H938.851V178.693H863.672V179.957ZM938.851 421.921H863.672V423.184H938.851V421.921Z" fill="white" fill-opacity="0.3" mask="url(#path-14-inside-1_549_193)"/>
</g>
<g opacity="0.2">
<g clip-path="url(#clip2_549_193)">
<mask id="path-43-inside-2_549_193" fill="white">
<path d="M276 881H351.179V1124.23H276V881Z"/>
</mask>
<line x1="237.874" y1="909.507" x2="361.369" y2="851.92" stroke="white" stroke-width="0.631759"/>
<line x1="237.874" y1="982.598" x2="361.369" y2="925.011" stroke="white" stroke-width="0.631759"/>
<line x1="237.874" y1="919.949" x2="361.369" y2="862.362" stroke="white" stroke-width="0.631759"/>
<line x1="237.874" y1="993.04" x2="361.369" y2="935.453" stroke="white" stroke-width="0.631759"/>
<line x1="237.874" y1="930.39" x2="361.369" y2="872.803" stroke="white" stroke-width="0.631759"/>
<line x1="237.874" y1="1003.48" x2="361.369" y2="945.894" stroke="white" stroke-width="0.631759"/>
<line x1="237.874" y1="940.832" x2="361.369" y2="883.245" stroke="white" stroke-width="0.631759"/>
<line x1="237.874" y1="951.274" x2="361.369" y2="893.687" stroke="white" stroke-width="0.631759"/>
<line x1="237.874" y1="961.715" x2="361.369" y2="904.128" stroke="white" stroke-width="0.631759"/>
<line x1="237.874" y1="972.157" x2="361.369" y2="914.57" stroke="white" stroke-width="0.631759"/>
</g>
<path d="M276 881.632H351.179V880.368H276V881.632ZM351.179 1123.6H276V1124.86H351.179V1123.6Z" fill="white" fill-opacity="0.3" mask="url(#path-43-inside-2_549_193)"/>
</g>
<g opacity="0.2">
<g clip-path="url(#clip3_549_193)">
<mask id="path-55-inside-3_549_193" fill="white">
<path d="M516 405H591.179V648.227H516V405Z"/>
</mask>
<line x1="477.874" y1="433.507" x2="601.369" y2="375.92" stroke="white" stroke-width="0.631759"/>
<line x1="477.874" y1="579.689" x2="601.369" y2="522.102" stroke="white" stroke-width="0.631759"/>
<line x1="477.874" y1="506.598" x2="601.369" y2="449.011" stroke="white" stroke-width="0.631759"/>
<line x1="477.874" y1="652.78" x2="601.369" y2="595.193" stroke="white" stroke-width="0.631759"/>
<line x1="477.874" y1="443.949" x2="601.369" y2="386.362" stroke="white" stroke-width="0.631759"/>
<line x1="477.874" y1="590.131" x2="601.369" y2="532.544" stroke="white" stroke-width="0.631759"/>
<line x1="477.874" y1="517.04" x2="601.369" y2="459.453" stroke="white" stroke-width="0.631759"/>
<line x1="477.874" y1="663.222" x2="601.369" y2="605.635" stroke="white" stroke-width="0.631759"/>
<line x1="477.874" y1="454.39" x2="601.369" y2="396.803" stroke="white" stroke-width="0.631759"/>
<line x1="477.874" y1="600.572" x2="601.369" y2="542.985" stroke="white" stroke-width="0.631759"/>
<line x1="477.874" y1="527.481" x2="601.369" y2="469.894" stroke="white" stroke-width="0.631759"/>
<line x1="477.874" y1="673.663" x2="601.369" y2="616.076" stroke="white" stroke-width="0.631759"/>
<line x1="477.874" y1="464.832" x2="601.369" y2="407.245" stroke="white" stroke-width="0.631759"/>
<line x1="477.874" y1="611.014" x2="601.369" y2="553.427" stroke="white" stroke-width="0.631759"/>
<line x1="477.874" y1="537.923" x2="601.369" y2="480.336" stroke="white" stroke-width="0.631759"/>
<line x1="477.874" y1="684.105" x2="601.369" y2="626.518" stroke="white" stroke-width="0.631759"/>
<line x1="477.874" y1="475.274" x2="601.369" y2="417.686" stroke="white" stroke-width="0.631759"/>
<line x1="477.874" y1="621.456" x2="601.369" y2="563.869" stroke="white" stroke-width="0.631759"/>
<line x1="477.874" y1="548.365" x2="601.369" y2="490.778" stroke="white" stroke-width="0.631759"/>
<line x1="477.874" y1="694.546" x2="601.369" y2="636.959" stroke="white" stroke-width="0.631759"/>
<line x1="477.874" y1="485.715" x2="601.369" y2="428.128" stroke="white" stroke-width="0.631759"/>
<line x1="477.874" y1="631.897" x2="601.369" y2="574.31" stroke="white" stroke-width="0.631759"/>
<line x1="477.874" y1="558.806" x2="601.369" y2="501.219" stroke="white" stroke-width="0.631759"/>
<line x1="477.874" y1="704.988" x2="601.369" y2="647.401" stroke="white" stroke-width="0.631759"/>
<line x1="477.874" y1="496.157" x2="601.369" y2="438.57" stroke="white" stroke-width="0.631759"/>
<line x1="477.874" y1="642.339" x2="601.369" y2="584.752" stroke="white" stroke-width="0.631759"/>
<line x1="477.874" y1="569.248" x2="601.369" y2="511.661" stroke="white" stroke-width="0.631759"/>
</g>
<path d="M516 405.632H591.179V404.368H516V405.632ZM591.179 647.595H516V648.859H591.179V647.595Z" fill="white" fill-opacity="0.3" mask="url(#path-55-inside-3_549_193)"/>
</g>
<g opacity="0.2">
<g clip-path="url(#clip4_549_193)">
<mask id="path-84-inside-4_549_193" fill="white">
<path d="M1207 724H1282.18V967.227H1207V724Z"/>
</mask>
<line x1="1168.87" y1="752.507" x2="1292.37" y2="694.92" stroke="white" stroke-width="0.631759"/>
<line x1="1168.87" y1="898.689" x2="1292.37" y2="841.102" stroke="white" stroke-width="0.631759"/>
<line x1="1168.87" y1="825.598" x2="1292.37" y2="768.011" stroke="white" stroke-width="0.631759"/>
<line x1="1168.87" y1="971.78" x2="1292.37" y2="914.193" stroke="white" stroke-width="0.631759"/>
<line x1="1168.87" y1="762.949" x2="1292.37" y2="705.362" stroke="white" stroke-width="0.631759"/>
<line x1="1168.87" y1="909.131" x2="1292.37" y2="851.544" stroke="white" stroke-width="0.631759"/>
<line x1="1168.87" y1="836.04" x2="1292.37" y2="778.453" stroke="white" stroke-width="0.631759"/>
<line x1="1168.87" y1="982.222" x2="1292.37" y2="924.635" stroke="white" stroke-width="0.631759"/>
<line x1="1168.87" y1="773.39" x2="1292.37" y2="715.803" stroke="white" stroke-width="0.631759"/>
<line x1="1168.87" y1="919.572" x2="1292.37" y2="861.985" stroke="white" stroke-width="0.631759"/>
<line x1="1168.87" y1="846.481" x2="1292.37" y2="788.894" stroke="white" stroke-width="0.631759"/>
<line x1="1168.87" y1="992.663" x2="1292.37" y2="935.076" stroke="white" stroke-width="0.631759"/>
<line x1="1168.87" y1="783.832" x2="1292.37" y2="726.245" stroke="white" stroke-width="0.631759"/>
<line x1="1168.87" y1="930.014" x2="1292.37" y2="872.427" stroke="white" stroke-width="0.631759"/>
<line x1="1168.87" y1="856.923" x2="1292.37" y2="799.336" stroke="white" stroke-width="0.631759"/>
<line x1="1168.87" y1="1003.1" x2="1292.37" y2="945.518" stroke="white" stroke-width="0.631759"/>
<line x1="1168.87" y1="794.274" x2="1292.37" y2="736.687" stroke="white" stroke-width="0.631759"/>
<line x1="1168.87" y1="940.456" x2="1292.37" y2="882.869" stroke="white" stroke-width="0.631759"/>
<line x1="1168.87" y1="867.365" x2="1292.37" y2="809.778" stroke="white" stroke-width="0.631759"/>
<line x1="1168.87" y1="1013.55" x2="1292.37" y2="955.959" stroke="white" stroke-width="0.631759"/>
<line x1="1168.87" y1="804.715" x2="1292.37" y2="747.128" stroke="white" stroke-width="0.631759"/>
<line x1="1168.87" y1="950.897" x2="1292.37" y2="893.31" stroke="white" stroke-width="0.631759"/>
<line x1="1168.87" y1="877.806" x2="1292.37" y2="820.219" stroke="white" stroke-width="0.631759"/>
<line x1="1168.87" y1="815.157" x2="1292.37" y2="757.57" stroke="white" stroke-width="0.631759"/>
<line x1="1168.87" y1="961.339" x2="1292.37" y2="903.752" stroke="white" stroke-width="0.631759"/>
<line x1="1168.87" y1="888.248" x2="1292.37" y2="830.661" stroke="white" stroke-width="0.631759"/>
</g>
<path d="M1207 724.632H1282.18V723.368H1207V724.632ZM1282.18 966.595H1207V967.859H1282.18V966.595Z" fill="white" fill-opacity="0.3" mask="url(#path-84-inside-4_549_193)"/>
</g>
<g opacity="0.2">
<g clip-path="url(#clip5_549_193)">
<mask id="path-112-inside-5_549_193" fill="white">
<path d="M-17 179.325H58.1793V422.552H-17V179.325Z"/>
</mask>
<line x1="-55.1266" y1="207.832" x2="68.3692" y2="150.245" stroke="white" stroke-width="0.631759"/>
<line x1="-55.1266" y1="354.014" x2="68.3692" y2="296.427" stroke="white" stroke-width="0.631759"/>
<line x1="-55.1266" y1="280.923" x2="68.3692" y2="223.336" stroke="white" stroke-width="0.631759"/>
<line x1="-55.1266" y1="427.105" x2="68.3692" y2="369.518" stroke="white" stroke-width="0.631759"/>
<line x1="-55.1266" y1="218.274" x2="68.3692" y2="160.687" stroke="white" stroke-width="0.631759"/>
<line x1="-55.1266" y1="364.456" x2="68.3692" y2="306.869" stroke="white" stroke-width="0.631759"/>
<line x1="-55.1266" y1="291.365" x2="68.3692" y2="233.778" stroke="white" stroke-width="0.631759"/>
<line x1="-55.1266" y1="437.547" x2="68.3692" y2="379.96" stroke="white" stroke-width="0.631759"/>
<line x1="-55.1266" y1="228.715" x2="68.3692" y2="171.128" stroke="white" stroke-width="0.631759"/>
<line x1="-55.1266" y1="374.897" x2="68.3692" y2="317.31" stroke="white" stroke-width="0.631759"/>
<line x1="-55.1266" y1="301.806" x2="68.3692" y2="244.219" stroke="white" stroke-width="0.631759"/>
<line x1="-55.1266" y1="447.988" x2="68.3692" y2="390.401" stroke="white" stroke-width="0.631759"/>
<line x1="-55.1266" y1="239.157" x2="68.3692" y2="181.57" stroke="white" stroke-width="0.631759"/>
<line x1="-55.1266" y1="385.339" x2="68.3692" y2="327.752" stroke="white" stroke-width="0.631759"/>
<line x1="-55.1266" y1="312.248" x2="68.3692" y2="254.661" stroke="white" stroke-width="0.631759"/>
<line x1="-55.1266" y1="458.43" x2="68.3692" y2="400.843" stroke="white" stroke-width="0.631759"/>
<line x1="-55.1266" y1="249.599" x2="68.3692" y2="192.012" stroke="white" stroke-width="0.631759"/>
<line x1="-55.1266" y1="395.781" x2="68.3692" y2="338.194" stroke="white" stroke-width="0.631759"/>
<line x1="-55.1266" y1="322.69" x2="68.3692" y2="265.103" stroke="white" stroke-width="0.631759"/>
<line x1="-55.1266" y1="468.872" x2="68.3692" y2="411.285" stroke="white" stroke-width="0.631759"/>
<line x1="-55.1266" y1="260.04" x2="68.3692" y2="202.453" stroke="white" stroke-width="0.631759"/>
<line x1="-55.1266" y1="406.222" x2="68.3692" y2="348.635" stroke="white" stroke-width="0.631759"/>
<line x1="-55.1266" y1="333.131" x2="68.3692" y2="275.544" stroke="white" stroke-width="0.631759"/>
<line x1="-55.1266" y1="479.313" x2="68.3692" y2="421.726" stroke="white" stroke-width="0.631759"/>
<line x1="-55.1266" y1="270.482" x2="68.3692" y2="212.895" stroke="white" stroke-width="0.631759"/>
<line x1="-55.1266" y1="416.664" x2="68.3692" y2="359.077" stroke="white" stroke-width="0.631759"/>
<line x1="-55.1266" y1="343.573" x2="68.3692" y2="285.986" stroke="white" stroke-width="0.631759"/>
</g>
<path d="M-17 179.957H58.1793V178.693H-17V179.957ZM58.1793 421.921H-17V423.184H58.1793V421.921Z" fill="white" fill-opacity="0.3" mask="url(#path-112-inside-5_549_193)"/>
</g>
</g>
<defs>
<clipPath id="clip0_549_193">
<rect width="1280" height="956" fill="white"/>
</clipPath>
<clipPath id="clip1_549_193">
<path d="M863.672 179.325H938.851V422.552H863.672V179.325Z" fill="white"/>
</clipPath>
<clipPath id="clip2_549_193">
<path d="M276 881H351.179V1124.23H276V881Z" fill="white"/>
</clipPath>
<clipPath id="clip3_549_193">
<path d="M516 405H591.179V648.227H516V405Z" fill="white"/>
</clipPath>
<clipPath id="clip4_549_193">
<path d="M1207 724H1282.18V967.227H1207V724Z" fill="white"/>
</clipPath>
<clipPath id="clip5_549_193">
<path d="M-17 179.325H58.1793V422.552H-17V179.325Z" fill="white"/>
</clipPath>
</defs>
</svg>
