<svg width="25" height="35" viewBox="0 0 25 35" fill="none" xmlns="http://www.w3.org/2000/svg">
<path d="M12.075 16.3875C10.9313 16.3875 9.83435 15.9331 9.0256 15.1244C8.21685 14.3156 7.7625 13.2187 7.7625 12.075C7.7625 10.9313 8.21685 9.83435 9.0256 9.0256C9.83435 8.21685 10.9313 7.7625 12.075 7.7625C13.2187 7.7625 14.3156 8.21685 15.1244 9.0256C15.9331 9.83435 16.3875 10.9313 16.3875 12.075C16.3875 12.6413 16.276 13.2021 16.0592 13.7253C15.8425 14.2485 15.5249 14.7239 15.1244 15.1244C14.7239 15.5249 14.2485 15.8425 13.7253 16.0592C13.2021 16.276 12.6413 16.3875 12.075 16.3875ZM12.075 0C8.87251 0 5.80119 1.27218 3.53669 3.53669C1.27218 5.80119 0 8.87251 0 12.075C0 21.1313 12.075 34.5 12.075 34.5C12.075 34.5 24.15 21.1313 24.15 12.075C24.15 8.87251 22.8778 5.80119 20.6133 3.53669C18.3488 1.27218 15.2775 0 12.075 0Z" fill="#EBEBEB"/>
</svg>
