<svg width="210" height="206" viewBox="0 0 210 206" fill="none" xmlns="http://www.w3.org/2000/svg">
<path d="M139.153 22.9378L209.986 44.3501L199.165 112.695L128.331 91.283L139.153 22.9378Z" fill="#C36F6F"/>
<path d="M199.165 112.695L157.123 154.367L86.289 132.955L128.331 91.283L199.165 112.695Z" fill="#903C3C"/>
<path d="M128.331 91.283L86.289 132.955L96.7961 64.6644L139.152 22.938L128.331 91.283Z" fill="#B44B4B"/>
<path d="M64.2127 0.2938L135.047 21.706L124.225 90.051L53.3916 68.6391L64.2127 0.2938Z" fill="#C36F6F"/>
<path d="M124.225 90.051L82.185 131.723L11.3509 110.311L53.3916 68.6391L124.225 90.051Z" fill="#903C3C"/>
<path d="M53.3916 68.6391L11.3509 110.311L21.8573 42.0199L64.2136 0.293501L53.3916 68.6391Z" fill="#B44B4B"/>
<path d="M128.358 95.17L199.192 116.582L188.74 185.188L117.852 163.461L128.358 95.17Z" fill="#C36F6F"/>
<path d="M117.851 163.461L75.8091 205.133L86.3161 136.842L128.357 95.17L117.851 163.461Z" fill="#B44B4B"/>
<path d="M53.4196 72.5254L124.253 93.938L113.802 162.543L42.9678 141.131L53.4196 72.5254Z" fill="#C36F6F"/>
<path d="M113.801 162.542L71.7594 204.214L0.87085 182.487L42.9671 141.13L113.801 162.542Z" fill="#903C3C"/>
<path d="M42.9678 141.131L0.87105 182.488L11.3774 114.197L53.4196 72.5254L42.9678 141.131Z" fill="#B44B4B"/>
</svg>
