<svg width="524" height="121" viewBox="0 0 524 121" fill="none" xmlns="http://www.w3.org/2000/svg">
<mask id="path-1-outside-1_682_2146" maskUnits="userSpaceOnUse" x="0" y="22" width="78" height="77" fill="black">
<rect fill="white" y="22" width="78" height="77"/>
<path d="M26.8523 24.2727L38.7841 45.4375H39.3523L51.4261 24.2727H73.4432L51.7102 60.6364L74.2955 97H51.7102L39.3523 75.4091H38.7841L26.4261 97H3.98295L26.2841 60.6364L4.69318 24.2727H26.8523Z"/>
</mask>
<path d="M26.8523 24.2727L28.5945 23.2905L28.0207 22.2727H26.8523V24.2727ZM38.7841 45.4375L37.0419 46.4197L37.6157 47.4375H38.7841V45.4375ZM39.3523 45.4375V47.4375H40.5139L41.0895 46.4285L39.3523 45.4375ZM51.4261 24.2727V22.2727H50.2645L49.6889 23.2817L51.4261 24.2727ZM73.4432 24.2727L75.1599 25.2988L76.9685 22.2727H73.4432V24.2727ZM51.7102 60.6364L49.9935 59.6103L49.3683 60.6564L50.0113 61.6916L51.7102 60.6364ZM74.2955 97V99H77.892L75.9944 95.9448L74.2955 97ZM51.7102 97L49.9744 97.9935L50.5505 99H51.7102V97ZM39.3523 75.4091L41.0881 74.4156L40.512 73.4091H39.3523V75.4091ZM38.7841 75.4091V73.4091H37.6244L37.0483 74.4156L38.7841 75.4091ZM26.4261 97V99H27.5858L28.1619 97.9935L26.4261 97ZM3.98295 97L2.27804 95.9544L0.410235 99H3.98295V97ZM26.2841 60.6364L27.989 61.682L28.62 60.6531L28.0038 59.6153L26.2841 60.6364ZM4.69318 24.2727V22.2727H1.17971L2.97347 25.2938L4.69318 24.2727ZM25.1101 25.2549L37.0419 46.4197L40.5263 44.4553L28.5945 23.2905L25.1101 25.2549ZM38.7841 47.4375H39.3523V43.4375H38.7841V47.4375ZM41.0895 46.4285L53.1633 25.2637L49.6889 23.2817L37.6151 44.4465L41.0895 46.4285ZM51.4261 26.2727H73.4432V22.2727H51.4261V26.2727ZM71.7264 23.2467L49.9935 59.6103L53.427 61.6624L75.1599 25.2988L71.7264 23.2467ZM50.0113 61.6916L72.5965 98.0552L75.9944 95.9448L53.4092 59.5811L50.0113 61.6916ZM74.2955 95H51.7102V99H74.2955V95ZM53.446 96.0065L41.0881 74.4156L37.6165 76.4026L49.9744 97.9935L53.446 96.0065ZM39.3523 73.4091H38.7841V77.4091H39.3523V73.4091ZM37.0483 74.4156L24.6904 96.0065L28.1619 97.9935L40.5199 76.4026L37.0483 74.4156ZM26.4261 95H3.98295V99H26.4261V95ZM5.68787 98.0456L27.989 61.682L24.5792 59.5908L2.27804 95.9544L5.68787 98.0456ZM28.0038 59.6153L6.41289 23.2516L2.97347 25.2938L24.5644 61.6574L28.0038 59.6153ZM4.69318 26.2727H26.8523V22.2727H4.69318V26.2727Z" fill="#EBEBEB" mask="url(#path-1-outside-1_682_2146)"/>
<path d="M82.9716 117.455V42.4545H102.432V51.9716H102.858C103.568 50.125 104.61 48.4323 105.983 46.8935C107.356 45.331 109.061 44.0881 111.097 43.1648C113.133 42.2178 115.5 41.7443 118.199 41.7443C121.797 41.7443 125.218 42.7031 128.462 44.6207C131.729 46.5384 134.38 49.5568 136.416 53.6761C138.476 57.7955 139.506 63.1458 139.506 69.7273C139.506 76.0246 138.523 81.2448 136.558 85.3878C134.617 89.5308 132.013 92.6203 128.746 94.6562C125.502 96.6922 121.939 97.7102 118.057 97.7102C115.5 97.7102 113.215 97.2959 111.203 96.4673C109.214 95.6151 107.51 94.4669 106.089 93.0227C104.693 91.5549 103.616 89.8977 102.858 88.0511H102.574V117.455H82.9716ZM102.148 69.7273C102.148 72.3788 102.491 74.6752 103.178 76.6165C103.888 78.5341 104.882 80.0256 106.161 81.0909C107.463 82.1326 109.013 82.6534 110.812 82.6534C112.612 82.6534 114.139 82.1444 115.393 81.1264C116.672 80.0848 117.643 78.6051 118.305 76.6875C118.992 74.7462 119.335 72.4261 119.335 69.7273C119.335 67.0284 118.992 64.7202 118.305 62.8026C117.643 60.8613 116.672 59.3816 115.393 58.3636C114.139 57.322 112.612 56.8011 110.812 56.8011C109.013 56.8011 107.463 57.322 106.161 58.3636C104.882 59.3816 103.888 60.8613 103.178 62.8026C102.491 64.7202 102.148 67.0284 102.148 69.7273ZM173.854 97.9943C168.03 97.9943 163.011 96.8816 158.797 94.6562C154.607 92.4072 151.375 89.1875 149.103 84.9972C146.854 80.7831 145.729 75.7405 145.729 69.8693C145.729 64.2348 146.865 59.3106 149.138 55.0966C151.411 50.8826 154.619 47.6037 158.762 45.2599C162.905 42.9162 167.793 41.7443 173.428 41.7443C177.547 41.7443 181.276 42.3835 184.614 43.6619C187.952 44.9403 190.805 46.7988 193.172 49.2372C195.54 51.652 197.363 54.5876 198.641 58.044C199.919 61.5005 200.559 65.3949 200.559 69.7273V74.2727H151.837V63.4773H182.519C182.495 61.9148 182.093 60.5417 181.311 59.358C180.554 58.1506 179.524 57.2154 178.222 56.5526C176.944 55.866 175.488 55.5227 173.854 55.5227C172.268 55.5227 170.812 55.866 169.486 56.5526C168.16 57.2154 167.095 58.1387 166.29 59.3224C165.509 60.5062 165.095 61.8911 165.047 63.4773V75.125C165.047 76.8769 165.414 78.4394 166.148 79.8125C166.882 81.1856 167.935 82.2628 169.309 83.044C170.682 83.8253 172.339 84.2159 174.28 84.2159C175.63 84.2159 176.861 84.0265 177.973 83.6477C179.11 83.2689 180.08 82.7244 180.885 82.0142C181.69 81.2803 182.282 80.4044 182.661 79.3864H200.559C199.943 83.1742 198.487 86.465 196.191 89.2585C193.894 92.0284 190.852 94.1828 187.064 95.7216C183.3 97.2367 178.897 97.9943 173.854 97.9943ZM208.558 97V42.4545H227.592V52.8239H228.16C229.154 48.9886 230.728 46.1832 232.883 44.4077C235.061 42.6321 237.606 41.7443 240.518 41.7443C241.37 41.7443 242.21 41.8153 243.039 41.9574C243.891 42.0758 244.708 42.2533 245.489 42.4901V59.2159C244.519 58.8845 243.323 58.6359 241.903 58.4702C240.482 58.3045 239.263 58.2216 238.245 58.2216C236.327 58.2216 234.599 58.6596 233.06 59.5355C231.545 60.3878 230.35 61.5952 229.474 63.1577C228.598 64.6965 228.16 66.5076 228.16 68.5909V97H208.558ZM251.917 97V42.4545H271.519V97H251.917ZM261.718 36.7727C259.067 36.7727 256.794 35.8968 254.9 34.1449C253.006 32.393 252.059 30.286 252.059 27.8239C252.059 25.3617 253.006 23.2547 254.9 21.5028C256.794 19.7509 259.067 18.875 261.718 18.875C264.393 18.875 266.666 19.7509 268.536 21.5028C270.43 23.2547 271.377 25.3617 271.377 27.8239C271.377 30.286 270.43 32.393 268.536 34.1449C266.666 35.8968 264.393 36.7727 261.718 36.7727ZM307.643 97.9943C301.819 97.9943 296.8 96.8816 292.586 94.6562C288.396 92.4072 285.164 89.1875 282.892 84.9972C280.643 80.7831 279.518 75.7405 279.518 69.8693C279.518 64.2348 280.654 59.3106 282.927 55.0966C285.2 50.8826 288.408 47.6037 292.551 45.2599C296.694 42.9162 301.583 41.7443 307.217 41.7443C311.336 41.7443 315.065 42.3835 318.403 43.6619C321.741 44.9403 324.594 46.7988 326.961 49.2372C329.329 51.652 331.152 54.5876 332.43 58.044C333.708 61.5005 334.348 65.3949 334.348 69.7273V74.2727H285.626V63.4773H316.308C316.284 61.9148 315.882 60.5417 315.1 59.358C314.343 58.1506 313.313 57.2154 312.011 56.5526C310.733 55.866 309.277 55.5227 307.643 55.5227C306.057 55.5227 304.601 55.866 303.275 56.5526C301.949 57.2154 300.884 58.1387 300.079 59.3224C299.298 60.5062 298.884 61.8911 298.836 63.4773V75.125C298.836 76.8769 299.203 78.4394 299.937 79.8125C300.671 81.1856 301.725 82.2628 303.098 83.044C304.471 83.8253 306.128 84.2159 308.069 84.2159C309.419 84.2159 310.65 84.0265 311.762 83.6477C312.899 83.2689 313.869 82.7244 314.674 82.0142C315.479 81.2803 316.071 80.4044 316.45 79.3864H334.348C333.732 83.1742 332.276 86.465 329.98 89.2585C327.683 92.0284 324.641 94.1828 320.853 95.7216C317.089 97.2367 312.686 97.9943 307.643 97.9943ZM361.949 66.3182V97H342.347V42.4545H360.955V52.8239H361.523C362.706 49.3674 364.79 46.6567 367.773 44.6918C370.779 42.7268 374.283 41.7443 378.284 41.7443C382.143 41.7443 385.493 42.6321 388.334 44.4077C391.198 46.1596 393.412 48.5743 394.974 51.652C396.561 54.7296 397.342 58.2453 397.318 62.1989V97H377.716V66.3182C377.74 63.6193 377.053 61.5005 375.656 59.9616C374.283 58.4228 372.366 57.6534 369.903 57.6534C368.294 57.6534 366.885 58.0085 365.678 58.7188C364.494 59.4053 363.582 60.3996 362.943 61.7017C362.304 62.9801 361.973 64.5189 361.949 66.3182ZM433.273 97.9943C427.355 97.9943 422.289 96.8224 418.075 94.4787C413.861 92.1113 410.629 88.8205 408.38 84.6065C406.131 80.3688 405.006 75.4564 405.006 69.8693C405.006 64.2822 406.131 59.3816 408.38 55.1676C410.629 50.9299 413.861 47.6392 418.075 45.2955C422.289 42.928 427.355 41.7443 433.273 41.7443C438.624 41.7443 443.252 42.715 447.158 44.6562C451.088 46.5739 454.13 49.2964 456.285 52.8239C458.439 56.3277 459.528 60.447 459.552 65.1818H441.37C441.11 62.3172 440.281 60.1392 438.884 58.6477C437.511 57.1326 435.736 56.375 433.558 56.375C431.853 56.375 430.362 56.8722 429.083 57.8665C427.805 58.8371 426.81 60.3168 426.1 62.3054C425.39 64.2704 425.035 66.7443 425.035 69.7273C425.035 72.7102 425.39 75.196 426.1 77.1847C426.81 79.1496 427.805 80.6293 429.083 81.6236C430.362 82.5942 431.853 83.0795 433.558 83.0795C435.002 83.0795 436.28 82.7481 437.393 82.0852C438.505 81.3987 439.405 80.4044 440.092 79.1023C440.802 77.7765 441.228 76.1667 441.37 74.2727H459.552C459.481 79.0786 458.38 83.2689 456.249 86.8438C454.119 90.3949 451.1 93.1411 447.194 95.0824C443.311 97.0237 438.671 97.9943 433.273 97.9943ZM493.776 97.9943C487.952 97.9943 482.933 96.8816 478.719 94.6562C474.529 92.4072 471.297 89.1875 469.025 84.9972C466.775 80.7831 465.651 75.7405 465.651 69.8693C465.651 64.2348 466.787 59.3106 469.06 55.0966C471.333 50.8826 474.541 47.6037 478.684 45.2599C482.827 42.9162 487.715 41.7443 493.35 41.7443C497.469 41.7443 501.198 42.3835 504.536 43.6619C507.874 44.9403 510.727 46.7988 513.094 49.2372C515.462 51.652 517.284 54.5876 518.563 58.044C519.841 61.5005 520.48 65.3949 520.48 69.7273V74.2727H471.759V63.4773H502.441C502.417 61.9148 502.015 60.5417 501.233 59.358C500.476 58.1506 499.446 57.2154 498.144 56.5526C496.865 55.866 495.409 55.5227 493.776 55.5227C492.19 55.5227 490.734 55.866 489.408 56.5526C488.082 57.2154 487.017 58.1387 486.212 59.3224C485.431 60.5062 485.016 61.8911 484.969 63.4773V75.125C484.969 76.8769 485.336 78.4394 486.07 79.8125C486.804 81.1856 487.857 82.2628 489.23 83.044C490.604 83.8253 492.261 84.2159 494.202 84.2159C495.551 84.2159 496.783 84.0265 497.895 83.6477C499.032 83.2689 500.002 82.7244 500.807 82.0142C501.612 81.2803 502.204 80.4044 502.583 79.3864H520.48C519.865 83.1742 518.409 86.465 516.113 89.2585C513.816 92.0284 510.774 94.1828 506.986 95.7216C503.222 97.2367 498.819 97.9943 493.776 97.9943Z" fill="#EBEBEB"/>
</svg>
