<svg width="537" height="121" viewBox="0 0 537 121" fill="none" xmlns="http://www.w3.org/2000/svg">
<mask id="path-1-outside-1_549_757" maskUnits="userSpaceOnUse" x="-1" y="16" width="523" height="104" fill="black">
<rect fill="white" x="-1" y="16" width="523" height="104"/>
<path d="M25.8523 24.2727L37.7841 45.4375H38.3523L50.4261 24.2727H72.4432L50.7102 60.6364L73.2955 97H50.7102L38.3523 75.4091H37.7841L25.4261 97H2.98295L25.2841 60.6364L3.69318 24.2727H25.8523ZM81.2411 117.455V42.4545H100.701V51.9716H101.127C101.838 50.125 102.879 48.4323 104.252 46.8935C105.626 45.331 107.33 44.0881 109.366 43.1648C111.402 42.2178 113.77 41.7443 116.468 41.7443C120.067 41.7443 123.488 42.7031 126.731 44.6207C129.998 46.5384 132.65 49.5568 134.686 53.6761C136.745 57.7955 137.775 63.1458 137.775 69.7273C137.775 76.0246 136.793 81.2448 134.828 85.3878C132.886 89.5308 130.282 92.6203 127.015 94.6562C123.772 96.6922 120.209 97.7102 116.326 97.7102C113.77 97.7102 111.485 97.2959 109.473 96.4673C107.484 95.6151 105.779 94.4669 104.359 93.0227C102.962 91.5549 101.885 89.8977 101.127 88.0511H100.843V117.455H81.2411ZM100.417 69.7273C100.417 72.3788 100.761 74.6752 101.447 76.6165C102.157 78.5341 103.152 80.0256 104.43 81.0909C105.732 82.1326 107.283 82.6534 109.082 82.6534C110.881 82.6534 112.408 82.1444 113.663 81.1264C114.941 80.0848 115.912 78.6051 116.575 76.6875C117.261 74.7462 117.605 72.4261 117.605 69.7273C117.605 67.0284 117.261 64.7202 116.575 62.8026C115.912 60.8613 114.941 59.3816 113.663 58.3636C112.408 57.322 110.881 56.8011 109.082 56.8011C107.283 56.8011 105.732 57.322 104.43 58.3636C103.152 59.3816 102.157 60.8613 101.447 62.8026C100.761 64.7202 100.417 67.0284 100.417 69.7273ZM172.124 97.9943C166.3 97.9943 161.281 96.8816 157.067 94.6562C152.876 92.4072 149.645 89.1875 147.372 84.9972C145.123 80.7831 143.999 75.7405 143.999 69.8693C143.999 64.2348 145.135 59.3106 147.408 55.0966C149.68 50.8826 152.888 47.6037 157.031 45.2599C161.174 42.9162 166.063 41.7443 171.697 41.7443C175.817 41.7443 179.545 42.3835 182.884 43.6619C186.222 44.9403 189.074 46.7988 191.442 49.2372C193.809 51.652 195.632 54.5876 196.911 58.044C198.189 61.5005 198.828 65.3949 198.828 69.7273V74.2727H150.107V63.4773H180.788C180.765 61.9148 180.362 60.5417 179.581 59.358C178.823 58.1506 177.794 57.2154 176.491 56.5526C175.213 55.866 173.757 55.5227 172.124 55.5227C170.537 55.5227 169.081 55.866 167.756 56.5526C166.43 57.2154 165.365 58.1387 164.56 59.3224C163.778 60.5062 163.364 61.8911 163.317 63.4773V75.125C163.317 76.8769 163.684 78.4394 164.418 79.8125C165.152 81.1856 166.205 82.2628 167.578 83.044C168.951 83.8253 170.608 84.2159 172.55 84.2159C173.899 84.2159 175.13 84.0265 176.243 83.6477C177.379 83.2689 178.35 82.7244 179.155 82.0142C179.96 81.2803 180.552 80.4044 180.93 79.3864H198.828C198.213 83.1742 196.757 86.465 194.46 89.2585C192.164 92.0284 189.122 94.1828 185.334 95.7216C181.57 97.2367 177.166 97.9943 172.124 97.9943ZM206.827 97V42.4545H225.861V52.8239H226.429C227.424 48.9886 228.998 46.1832 231.152 44.4077C233.33 42.6321 235.875 41.7443 238.787 41.7443C239.64 41.7443 240.48 41.8153 241.309 41.9574C242.161 42.0758 242.978 42.2533 243.759 42.4901V59.2159C242.788 58.8845 241.593 58.6359 240.172 58.4702C238.752 58.3045 237.533 58.2216 236.515 58.2216C234.597 58.2216 232.869 58.6596 231.33 59.5355C229.815 60.3878 228.619 61.5952 227.743 63.1577C226.867 64.6965 226.429 66.5076 226.429 68.5909V97H206.827ZM250.186 97V42.4545H269.789V97H250.186ZM259.988 36.7727C257.336 36.7727 255.063 35.8968 253.169 34.1449C251.275 32.393 250.328 30.286 250.328 27.8239C250.328 25.3617 251.275 23.2547 253.169 21.5028C255.063 19.7509 257.336 18.875 259.988 18.875C262.663 18.875 264.935 19.7509 266.806 21.5028C268.7 23.2547 269.647 25.3617 269.647 27.8239C269.647 30.286 268.7 32.393 266.806 34.1449C264.935 35.8968 262.663 36.7727 259.988 36.7727ZM305.913 97.9943C300.089 97.9943 295.07 96.8816 290.856 94.6562C286.665 92.4072 283.434 89.1875 281.161 84.9972C278.912 80.7831 277.788 75.7405 277.788 69.8693C277.788 64.2348 278.924 59.3106 281.197 55.0966C283.469 50.8826 286.677 47.6037 290.82 45.2599C294.963 42.9162 299.852 41.7443 305.487 41.7443C309.606 41.7443 313.335 42.3835 316.673 43.6619C320.011 44.9403 322.863 46.7988 325.231 49.2372C327.598 51.652 329.421 54.5876 330.7 58.044C331.978 61.5005 332.617 65.3949 332.617 69.7273V74.2727H283.896V63.4773H314.577C314.554 61.9148 314.151 60.5417 313.37 59.358C312.612 58.1506 311.583 57.2154 310.281 56.5526C309.002 55.866 307.546 55.5227 305.913 55.5227C304.326 55.5227 302.871 55.866 301.545 56.5526C300.219 57.2154 299.154 58.1387 298.349 59.3224C297.567 60.5062 297.153 61.8911 297.106 63.4773V75.125C297.106 76.8769 297.473 78.4394 298.207 79.8125C298.941 81.1856 299.994 82.2628 301.367 83.044C302.74 83.8253 304.397 84.2159 306.339 84.2159C307.688 84.2159 308.919 84.0265 310.032 83.6477C311.168 83.2689 312.139 82.7244 312.944 82.0142C313.749 81.2803 314.341 80.4044 314.719 79.3864H332.617C332.002 83.1742 330.546 86.465 328.249 89.2585C325.953 92.0284 322.911 94.1828 319.123 95.7216C315.359 97.2367 310.955 97.9943 305.913 97.9943ZM360.218 66.3182V97H340.616V42.4545H359.224V52.8239H359.792C360.976 49.3674 363.059 46.6567 366.042 44.6918C369.049 42.7268 372.553 41.7443 376.554 41.7443C380.413 41.7443 383.762 42.6321 386.603 44.4077C389.468 46.1596 391.681 48.5743 393.244 51.652C394.83 54.7296 395.611 58.2453 395.588 62.1989V97H375.985V66.3182C376.009 63.6193 375.323 61.5005 373.926 59.9616C372.553 58.4228 370.635 57.6534 368.173 57.6534C366.563 57.6534 365.154 58.0085 363.947 58.7188C362.763 59.4053 361.852 60.3996 361.213 61.7017C360.574 62.9801 360.242 64.5189 360.218 66.3182ZM431.543 97.9943C425.624 97.9943 420.558 96.8224 416.344 94.4787C412.13 92.1113 408.899 88.8205 406.65 84.6065C404.4 80.3688 403.276 75.4564 403.276 69.8693C403.276 64.2822 404.4 59.3816 406.65 55.1676C408.899 50.9299 412.13 47.6392 416.344 45.2955C420.558 42.928 425.624 41.7443 431.543 41.7443C436.893 41.7443 441.522 42.715 445.428 44.6562C449.358 46.5739 452.4 49.2964 454.554 52.8239C456.709 56.3277 457.798 60.447 457.821 65.1818H439.64C439.379 62.3172 438.551 60.1392 437.154 58.6477C435.781 57.1326 434.005 56.375 431.827 56.375C430.123 56.375 428.631 56.8722 427.353 57.8665C426.074 58.8371 425.08 60.3168 424.37 62.3054C423.659 64.2704 423.304 66.7443 423.304 69.7273C423.304 72.7102 423.659 75.196 424.37 77.1847C425.08 79.1496 426.074 80.6293 427.353 81.6236C428.631 82.5942 430.123 83.0795 431.827 83.0795C433.271 83.0795 434.55 82.7481 435.662 82.0852C436.775 81.3987 437.675 80.4044 438.361 79.1023C439.071 77.7765 439.498 76.1667 439.64 74.2727H457.821C457.75 79.0786 456.65 83.2689 454.519 86.8438C452.388 90.3949 449.37 93.1411 445.463 95.0824C441.581 97.0237 436.941 97.9943 431.543 97.9943ZM492.045 97.9943C486.222 97.9943 481.203 96.8816 476.989 94.6562C472.798 92.4072 469.567 89.1875 467.294 84.9972C465.045 80.7831 463.92 75.7405 463.92 69.8693C463.92 64.2348 465.057 59.3106 467.33 55.0966C469.602 50.8826 472.81 47.6037 476.953 45.2599C481.096 42.9162 485.985 41.7443 491.619 41.7443C495.739 41.7443 499.467 42.3835 502.805 43.6619C506.143 44.9403 508.996 46.7988 511.364 49.2372C513.731 51.652 515.554 54.5876 516.832 58.044C518.111 61.5005 518.75 65.3949 518.75 69.7273V74.2727H470.028V63.4773H500.71C500.687 61.9148 500.284 60.5417 499.503 59.358C498.745 58.1506 497.715 57.2154 496.413 56.5526C495.135 55.866 493.679 55.5227 492.045 55.5227C490.459 55.5227 489.003 55.866 487.678 56.5526C486.352 57.2154 485.286 58.1387 484.482 59.3224C483.7 60.5062 483.286 61.8911 483.239 63.4773V75.125C483.239 76.8769 483.606 78.4394 484.339 79.8125C485.073 81.1856 486.127 82.2628 487.5 83.044C488.873 83.8253 490.53 84.2159 492.472 84.2159C493.821 84.2159 495.052 84.0265 496.165 83.6477C497.301 83.2689 498.272 82.7244 499.077 82.0142C499.882 81.2803 500.473 80.4044 500.852 79.3864H518.75C518.134 83.1742 516.679 86.465 514.382 89.2585C512.086 92.0284 509.044 94.1828 505.256 95.7216C501.491 97.2367 497.088 97.9943 492.045 97.9943Z"/>
</mask>
<path d="M25.8523 24.2727L27.5945 23.2905L27.0207 22.2727H25.8523V24.2727ZM37.7841 45.4375L36.0419 46.4197L36.6157 47.4375H37.7841V45.4375ZM38.3523 45.4375V47.4375H39.5139L40.0895 46.4285L38.3523 45.4375ZM50.4261 24.2727V22.2727H49.2645L48.6889 23.2817L50.4261 24.2727ZM72.4432 24.2727L74.1599 25.2988L75.9685 22.2727H72.4432V24.2727ZM50.7102 60.6364L48.9935 59.6103L48.3683 60.6564L49.0113 61.6916L50.7102 60.6364ZM73.2955 97V99H76.892L74.9944 95.9448L73.2955 97ZM50.7102 97L48.9744 97.9935L49.5505 99H50.7102V97ZM38.3523 75.4091L40.0881 74.4156L39.512 73.4091H38.3523V75.4091ZM37.7841 75.4091V73.4091H36.6244L36.0483 74.4156L37.7841 75.4091ZM25.4261 97V99H26.5858L27.1619 97.9935L25.4261 97ZM2.98295 97L1.27804 95.9544L-0.589765 99H2.98295V97ZM25.2841 60.6364L26.989 61.682L27.62 60.6531L27.0038 59.6153L25.2841 60.6364ZM3.69318 24.2727V22.2727H0.179708L1.97347 25.2938L3.69318 24.2727ZM24.1101 25.2549L36.0419 46.4197L39.5263 44.4553L27.5945 23.2905L24.1101 25.2549ZM37.7841 47.4375H38.3523V43.4375H37.7841V47.4375ZM40.0895 46.4285L52.1633 25.2637L48.6889 23.2817L36.6151 44.4465L40.0895 46.4285ZM50.4261 26.2727H72.4432V22.2727H50.4261V26.2727ZM70.7264 23.2467L48.9935 59.6103L52.427 61.6624L74.1599 25.2988L70.7264 23.2467ZM49.0113 61.6916L71.5965 98.0552L74.9944 95.9448L52.4092 59.5811L49.0113 61.6916ZM73.2955 95H50.7102V99H73.2955V95ZM52.446 96.0065L40.0881 74.4156L36.6165 76.4026L48.9744 97.9935L52.446 96.0065ZM38.3523 73.4091H37.7841V77.4091H38.3523V73.4091ZM36.0483 74.4156L23.6904 96.0065L27.1619 97.9935L39.5199 76.4026L36.0483 74.4156ZM25.4261 95H2.98295V99H25.4261V95ZM4.68787 98.0456L26.989 61.682L23.5792 59.5908L1.27804 95.9544L4.68787 98.0456ZM27.0038 59.6153L5.41289 23.2516L1.97347 25.2938L23.5644 61.6574L27.0038 59.6153ZM3.69318 26.2727H25.8523V22.2727H3.69318V26.2727ZM81.2411 117.455H79.2411V119.455H81.2411V117.455ZM81.2411 42.4545V40.4545H79.2411V42.4545H81.2411ZM100.701 42.4545H102.701V40.4545H100.701V42.4545ZM100.701 51.9716H98.7013V53.9716H100.701V51.9716ZM101.127 51.9716V53.9716H102.501L102.994 52.6895L101.127 51.9716ZM104.252 46.8935L105.745 48.225L105.75 48.2194L105.755 48.2137L104.252 46.8935ZM109.366 43.1648L110.192 44.9862L110.201 44.9823L110.21 44.9782L109.366 43.1648ZM126.731 44.6207L125.713 46.3423L125.719 46.3456L126.731 44.6207ZM134.686 53.6761L132.893 54.5623L132.897 54.5706L134.686 53.6761ZM134.828 85.3878L133.021 84.5307L133.017 84.5392L134.828 85.3878ZM127.015 94.6562L125.957 92.9589L125.952 92.9623L127.015 94.6562ZM109.473 96.4673L108.685 98.3056L108.698 98.3112L108.711 98.3167L109.473 96.4673ZM104.359 93.0227L102.91 94.4015L102.922 94.4134L102.933 94.4252L104.359 93.0227ZM101.127 88.0511L102.978 87.292L102.469 86.0511H101.127V88.0511ZM100.843 88.0511V86.0511H98.8434V88.0511H100.843ZM100.843 117.455V119.455H102.843V117.455H100.843ZM101.447 76.6165L99.5615 77.2833L99.5665 77.2973L99.5716 77.3111L101.447 76.6165ZM104.43 81.0909L103.15 82.6274L103.165 82.6402L103.181 82.6526L104.43 81.0909ZM113.663 81.1264L114.923 82.6795L114.926 82.6769L113.663 81.1264ZM116.575 76.6875L114.689 76.0207L114.687 76.0274L114.685 76.0341L116.575 76.6875ZM116.575 62.8026L114.682 63.4488L114.687 63.4628L114.692 63.4767L116.575 62.8026ZM113.663 58.3636L112.385 59.9025L112.401 59.9155L112.417 59.9282L113.663 58.3636ZM104.43 58.3636L105.676 59.9282L105.679 59.9254L104.43 58.3636ZM101.447 62.8026L99.5688 62.1154L99.5641 62.1284L101.447 62.8026ZM83.2411 117.455V42.4545H79.2411V117.455H83.2411ZM81.2411 44.4545H100.701V40.4545H81.2411V44.4545ZM98.7013 42.4545V51.9716H102.701V42.4545H98.7013ZM100.701 53.9716H101.127V49.9716H100.701V53.9716ZM102.994 52.6895C103.614 51.0779 104.526 49.5914 105.745 48.225L102.76 45.5619C101.233 47.2732 100.061 49.1721 99.2608 51.2536L102.994 52.6895ZM105.755 48.2137C106.927 46.88 108.395 45.8012 110.192 44.9862L108.54 41.3433C106.265 42.3749 104.324 43.782 102.75 45.5732L105.755 48.2137ZM110.21 44.9782C111.933 44.1764 114.003 43.7443 116.468 43.7443V39.7443C113.536 39.7443 110.871 40.2592 108.523 41.3513L110.21 44.9782ZM116.468 43.7443C119.692 43.7443 122.763 44.598 125.713 46.3423L127.749 42.8991C124.213 40.8082 120.442 39.7443 116.468 39.7443V43.7443ZM125.719 46.3456C128.584 48.0272 130.992 50.7175 132.893 54.5623L136.479 52.79C134.307 48.3962 131.413 45.0495 127.744 42.8959L125.719 46.3456ZM132.897 54.5706C134.771 58.3191 135.775 63.3321 135.775 69.7273H139.775C139.775 62.9596 138.72 57.2718 136.475 52.7817L132.897 54.5706ZM135.775 69.7273C135.775 75.8325 134.82 80.7361 133.021 84.5307L136.635 86.2448C138.765 81.7535 139.775 76.2167 139.775 69.7273H135.775ZM133.017 84.5392C131.208 88.3994 128.839 91.163 125.957 92.9589L128.073 96.3536C131.725 94.0775 134.565 90.6622 136.639 86.2364L133.017 84.5392ZM125.952 92.9623C123.032 94.7954 119.838 95.7102 116.326 95.7102V99.7102C120.58 99.7102 124.512 98.5891 128.079 96.3502L125.952 92.9623ZM116.326 95.7102C113.986 95.7102 111.967 95.3313 110.234 94.618L108.711 98.3167C111.003 99.2606 113.553 99.7102 116.326 99.7102V95.7102ZM110.26 94.629C108.494 93.8721 107.011 92.8667 105.785 91.6202L102.933 94.4252C104.548 96.067 106.474 97.358 108.685 98.3056L110.26 94.629ZM105.808 91.644C104.58 90.3532 103.64 88.9054 102.978 87.292L99.2771 88.8102C100.13 90.89 101.345 92.7566 102.91 94.4015L105.808 91.644ZM101.127 86.0511H100.843V90.0511H101.127V86.0511ZM98.8434 88.0511V117.455H102.843V88.0511H98.8434ZM100.843 115.455H81.2411V119.455H100.843V115.455ZM98.4173 69.7273C98.4173 72.5439 98.781 75.0763 99.5615 77.2833L103.333 75.9496C102.74 74.2741 102.417 72.2137 102.417 69.7273H98.4173ZM99.5716 77.3111C100.376 79.482 101.548 81.2923 103.15 82.6274L105.71 79.5545C104.756 78.7588 103.939 77.5862 103.323 75.9218L99.5716 77.3111ZM103.181 82.6526C104.866 84.0011 106.867 84.6534 109.082 84.6534V80.6534C107.699 80.6534 106.598 80.2641 105.679 79.5292L103.181 82.6526ZM109.082 84.6534C111.285 84.6534 113.271 84.0197 114.923 82.6795L112.403 79.5733C111.545 80.2691 110.478 80.6534 109.082 80.6534V84.6534ZM114.926 82.6769C116.553 81.3515 117.709 79.5291 118.465 77.3409L114.685 76.0341C114.115 77.6811 113.33 78.818 112.4 79.5759L114.926 82.6769ZM118.46 77.3543C119.242 75.144 119.605 72.5867 119.605 69.7273H115.605C115.605 72.2656 115.281 74.3484 114.689 76.0207L118.46 77.3543ZM119.605 69.7273C119.605 66.8689 119.242 64.3199 118.458 62.1284L114.692 63.4767C115.28 65.1205 115.605 67.1879 115.605 69.7273H119.605ZM118.468 62.1563C117.713 59.9453 116.554 58.1091 114.909 56.7991L112.417 59.9282C113.329 60.6541 114.111 61.7772 114.682 63.4488L118.468 62.1563ZM114.941 56.8248C113.289 55.4538 111.296 54.8011 109.082 54.8011V58.8011C110.466 58.8011 111.527 59.1901 112.385 59.9025L114.941 56.8248ZM109.082 54.8011C106.867 54.8011 104.866 55.4534 103.181 56.8019L105.679 59.9254C106.598 59.1905 107.699 58.8011 109.082 58.8011V54.8011ZM103.184 56.7991C101.551 58.0992 100.372 59.9195 99.5688 62.1154L103.325 63.4897C103.942 61.803 104.752 60.664 105.676 59.9282L103.184 56.7991ZM99.5641 62.1284C98.7795 64.3199 98.4173 66.8689 98.4173 69.7273H102.417C102.417 67.1879 102.742 65.1205 103.33 63.4767L99.5641 62.1284ZM157.067 94.6562L156.121 96.4185L156.133 96.4248L157.067 94.6562ZM147.372 84.9972L145.608 85.9389L145.614 85.9507L147.372 84.9972ZM147.408 55.0966L149.168 56.046L149.168 56.046L147.408 55.0966ZM157.031 45.2599L158.016 47.0007L158.016 47.0007L157.031 45.2599ZM182.884 43.6619L183.599 41.7942L183.599 41.7942L182.884 43.6619ZM191.442 49.2372L190.007 50.6304L190.014 50.6374L191.442 49.2372ZM196.911 58.044L195.035 58.7378L195.035 58.7378L196.911 58.044ZM198.828 74.2727V76.2727H200.828V74.2727H198.828ZM150.107 74.2727H148.107V76.2727H150.107V74.2727ZM150.107 63.4773V61.4773H148.107V63.4773H150.107ZM180.788 63.4773V65.4773H182.819L182.788 63.447L180.788 63.4773ZM179.581 59.358L177.887 60.4209L177.899 60.4404L177.912 60.4596L179.581 59.358ZM176.491 56.5526L175.545 58.3145L175.565 58.3249L175.584 58.3349L176.491 56.5526ZM167.756 56.5526L168.65 58.3414L168.663 58.3351L168.675 58.3285L167.756 56.5526ZM164.56 59.3224L162.906 58.1978L162.898 58.2092L162.89 58.2208L164.56 59.3224ZM163.317 63.4773L161.318 63.4176L161.317 63.4474V63.4773H163.317ZM164.418 79.8125L162.654 80.7553L162.654 80.7553L164.418 79.8125ZM167.578 83.044L166.589 84.7824L166.589 84.7824L167.578 83.044ZM176.243 83.6477L175.61 81.7503L175.598 81.7544L176.243 83.6477ZM179.155 82.0142L180.478 83.5139L180.49 83.5031L180.502 83.4921L179.155 82.0142ZM180.93 79.3864V77.3864H179.541L179.056 78.6889L180.93 79.3864ZM198.828 79.3864L200.802 79.7072L201.179 77.3864H198.828V79.3864ZM194.46 89.2585L196 90.535L196.005 90.5286L194.46 89.2585ZM185.334 95.7216L186.081 97.5769L186.087 97.5745L185.334 95.7216ZM172.124 95.9943C166.554 95.9943 161.87 94.9309 158.001 92.8877L156.133 96.4248C160.692 98.8324 166.046 99.9943 172.124 99.9943V95.9943ZM158.013 92.894C154.167 90.83 151.217 87.8918 149.13 84.0436L145.614 85.9507C148.072 90.4832 151.586 93.9844 156.121 96.4185L158.013 92.894ZM149.137 84.0555C147.074 80.1904 145.999 75.4863 145.999 69.8693H141.999C141.999 75.9947 143.172 81.3759 145.608 85.9388L149.137 84.0555ZM145.999 69.8693C145.999 64.5076 147.078 59.9207 149.168 56.046L145.647 54.1472C143.192 58.7006 141.999 63.9621 141.999 69.8693H145.999ZM149.168 56.046C151.263 52.1615 154.203 49.1578 158.016 47.0007L156.046 43.5192C151.574 46.0496 148.098 49.6037 145.647 54.1472L149.168 56.046ZM158.016 47.0007C161.808 44.8557 166.344 43.7443 171.697 43.7443V39.7443C165.781 39.7443 160.541 40.9767 156.046 43.5192L158.016 47.0007ZM171.697 43.7443C175.609 43.7443 179.09 44.3509 182.168 45.5296L183.599 41.7942C180 40.4161 176.025 39.7443 171.697 39.7443V43.7443ZM182.168 45.5296C185.249 46.7096 187.852 48.4113 190.007 50.6304L192.877 47.8441C190.296 45.1862 187.194 43.1711 183.599 41.7942L182.168 45.5296ZM190.014 50.6374C192.167 52.8334 193.845 55.5218 195.035 58.7378L198.786 57.3502C197.419 53.6534 195.452 50.4706 192.87 47.8371L190.014 50.6374ZM195.035 58.7378C196.218 61.937 196.828 65.591 196.828 69.7273H200.828C200.828 65.1988 200.16 61.064 198.786 57.3502L195.035 58.7378ZM196.828 69.7273V74.2727H200.828V69.7273H196.828ZM198.828 72.2727H150.107V76.2727H198.828V72.2727ZM152.107 74.2727V63.4773H148.107V74.2727H152.107ZM150.107 65.4773H180.788V61.4773H150.107V65.4773ZM182.788 63.447C182.759 61.5434 182.263 59.7903 181.25 58.2563L177.912 60.4596C178.462 61.293 178.77 62.2862 178.789 63.5076L182.788 63.447ZM181.275 58.295C180.32 56.7731 179.015 55.593 177.399 54.7702L175.584 58.3349C176.572 58.8379 177.327 59.5281 177.887 60.4209L181.275 58.295ZM177.438 54.7906C175.833 53.929 174.045 53.5227 172.124 53.5227V57.5227C173.469 57.5227 174.593 57.803 175.545 58.3145L177.438 54.7906ZM172.124 53.5227C170.238 53.5227 168.464 53.9337 166.836 54.7766L168.675 58.3285C169.699 57.7983 170.837 57.5227 172.124 57.5227V53.5227ZM166.861 54.7637C165.241 55.5738 163.91 56.7212 162.906 58.1978L166.214 60.4471C166.819 59.5563 167.619 58.8571 168.65 58.3414L166.861 54.7637ZM162.89 58.2208C161.881 59.7503 161.375 61.5056 161.318 63.4176L165.316 63.5369C165.353 62.2766 165.676 61.262 166.229 60.4241L162.89 58.2208ZM161.317 63.4773V75.125H165.317V63.4773H161.317ZM161.317 75.125C161.317 77.164 161.746 79.0574 162.654 80.7553L166.181 78.8697C165.621 77.8214 165.317 76.5898 165.317 75.125H161.317ZM162.654 80.7553C163.568 82.4665 164.893 83.8173 166.589 84.7824L168.567 81.3057C167.517 80.7083 166.735 79.9047 166.181 78.8697L162.654 80.7553ZM166.589 84.7824C168.325 85.7702 170.34 86.2159 172.55 86.2159V82.2159C170.876 82.2159 169.577 81.8803 168.567 81.3057L166.589 84.7824ZM172.55 86.2159C174.086 86.2159 175.539 86.0001 176.887 85.541L175.598 81.7544C174.721 82.053 173.712 82.2159 172.55 82.2159V86.2159ZM176.875 85.5451C178.237 85.0913 179.45 84.4212 180.478 83.5139L177.832 80.5145C177.25 81.0277 176.522 81.4466 175.61 81.7504L176.875 85.5451ZM180.502 83.4921C181.542 82.5443 182.315 81.4011 182.805 80.0838L179.056 78.6889C178.789 79.4076 178.378 80.0163 177.807 80.5363L180.502 83.4921ZM180.93 81.3864H198.828V77.3864H180.93V81.3864ZM196.854 79.0656C196.292 82.5268 194.973 85.4847 192.915 87.9885L196.005 90.5286C198.54 87.4452 200.134 83.8216 200.802 79.7072L196.854 79.0656ZM192.921 87.982C190.862 90.4649 188.105 92.437 184.581 93.8687L186.087 97.5745C190.138 95.9286 193.466 93.5919 196 90.535L192.921 87.982ZM184.587 93.8663C181.11 95.2657 176.97 95.9943 172.124 95.9943V99.9943C177.362 99.9943 182.029 99.2077 186.081 97.5769L184.587 93.8663ZM206.827 97H204.827V99H206.827V97ZM206.827 42.4545V40.4545H204.827V42.4545H206.827ZM225.861 42.4545H227.861V40.4545H225.861V42.4545ZM225.861 52.8239H223.861V54.8239H225.861V52.8239ZM226.429 52.8239V54.8239H227.977L228.365 53.3258L226.429 52.8239ZM231.152 44.4077L229.889 42.8575L229.88 42.8643L231.152 44.4077ZM241.309 41.9574L240.971 43.9286L241.002 43.934L241.033 43.9384L241.309 41.9574ZM243.759 42.4901H245.759V41.0063L244.339 40.576L243.759 42.4901ZM243.759 59.2159L243.113 61.1086L245.759 62.0122V59.2159H243.759ZM240.172 58.4702L240.404 56.4836L240.404 56.4836L240.172 58.4702ZM231.33 59.5355L232.31 61.2787L232.319 61.2736L231.33 59.5355ZM227.743 63.1577L229.481 64.1471L229.488 64.1357L227.743 63.1577ZM226.429 97V99H228.429V97H226.429ZM208.827 97V42.4545H204.827V97H208.827ZM206.827 44.4545H225.861V40.4545H206.827V44.4545ZM223.861 42.4545V52.8239H227.861V42.4545H223.861ZM225.861 54.8239H226.429V50.8239H225.861V54.8239ZM228.365 53.3258C229.297 49.7334 230.707 47.3667 232.424 45.951L229.88 42.8643C227.289 44.9997 225.551 48.2438 224.493 52.3219L228.365 53.3258ZM232.416 45.9578C234.223 44.4844 236.318 43.7443 238.787 43.7443V39.7443C235.433 39.7443 232.437 40.7798 229.889 42.8575L232.416 45.9578ZM238.787 43.7443C239.528 43.7443 240.255 43.806 240.971 43.9286L241.647 39.9861C240.705 39.8247 239.751 39.7443 238.787 39.7443V43.7443ZM241.033 43.9384C241.788 44.0432 242.503 44.1992 243.179 44.4041L244.339 40.576C243.453 40.3075 242.534 40.1083 241.584 39.9764L241.033 43.9384ZM241.759 42.4901V59.2159H245.759V42.4901H241.759ZM244.405 57.3232C243.259 56.9319 241.915 56.6599 240.404 56.4836L239.94 60.4567C241.271 60.6119 242.317 60.8371 243.113 61.1086L244.405 57.3232ZM240.404 56.4836C238.935 56.3122 237.634 56.2216 236.515 56.2216V60.2216C237.431 60.2216 238.569 60.2967 239.94 60.4567L240.404 56.4836ZM236.515 56.2216C234.28 56.2216 232.206 56.7357 230.341 57.7974L232.319 61.2736C233.532 60.5834 234.914 60.2216 236.515 60.2216V56.2216ZM230.349 57.7924C228.504 58.8304 227.048 60.307 225.999 62.1797L229.488 64.1357C230.19 62.8833 231.125 61.9452 232.31 61.2787L230.349 57.7924ZM226.005 62.1683C224.929 64.058 224.429 66.2223 224.429 68.5909H228.429C228.429 66.7929 228.805 65.335 229.481 64.1471L226.005 62.1683ZM224.429 68.5909V97H228.429V68.5909H224.429ZM226.429 95H206.827V99H226.429V95ZM250.186 97H248.186V99H250.186V97ZM250.186 42.4545V40.4545H248.186V42.4545H250.186ZM269.789 42.4545H271.789V40.4545H269.789V42.4545ZM269.789 97V99H271.789V97H269.789ZM253.169 34.1449L251.811 35.6131L251.811 35.6131L253.169 34.1449ZM253.169 21.5028L251.811 20.0346L251.811 20.0346L253.169 21.5028ZM266.806 21.5028L265.438 22.9625L265.448 22.971L266.806 21.5028ZM266.806 34.1449L265.448 32.6767L265.438 32.6852L266.806 34.1449ZM252.186 97V42.4545H248.186V97H252.186ZM250.186 44.4545H269.789V40.4545H250.186V44.4545ZM267.789 42.4545V97H271.789V42.4545H267.789ZM269.789 95H250.186V99H269.789V95ZM259.988 34.7727C257.824 34.7727 256.041 34.0763 254.527 32.6767L251.811 35.6131C254.086 37.7172 256.848 38.7727 259.988 38.7727V34.7727ZM254.527 32.6767C253.021 31.2829 252.328 29.6991 252.328 27.8239H248.328C248.328 30.8728 249.53 33.5031 251.811 35.6131L254.527 32.6767ZM252.328 27.8239C252.328 25.9486 253.021 24.3648 254.527 22.971L251.811 20.0346C249.53 22.1447 248.328 24.7749 248.328 27.8239H252.328ZM254.527 22.971C256.041 21.5714 257.824 20.875 259.988 20.875V16.875C256.848 16.875 254.086 17.9305 251.811 20.0346L254.527 22.971ZM259.988 20.875C262.18 20.875 263.956 21.5742 265.438 22.9625L268.173 20.0432C265.915 17.9277 263.146 16.875 259.988 16.875V20.875ZM265.448 22.971C266.954 24.3648 267.647 25.9486 267.647 27.8239H271.647C271.647 24.7749 270.445 22.1447 268.164 20.0346L265.448 22.971ZM267.647 27.8239C267.647 29.6991 266.954 31.2829 265.448 32.6767L268.164 35.6131C270.445 33.5031 271.647 30.8728 271.647 27.8239H267.647ZM265.438 32.6852C263.956 34.0735 262.18 34.7727 259.988 34.7727V38.7727C263.146 38.7727 265.915 37.7201 268.173 35.6045L265.438 32.6852ZM290.856 94.6562L289.91 96.4185L289.922 96.4248L290.856 94.6562ZM281.161 84.9972L279.397 85.9389L279.403 85.9507L281.161 84.9972ZM281.197 55.0966L282.957 56.046L282.957 56.046L281.197 55.0966ZM290.82 45.2599L291.805 47.0007L291.805 47.0007L290.82 45.2599ZM316.673 43.6619L317.388 41.7942L317.388 41.7942L316.673 43.6619ZM325.231 49.2372L323.796 50.6304L323.803 50.6374L325.231 49.2372ZM330.7 58.044L328.824 58.7378L328.824 58.7378L330.7 58.044ZM332.617 74.2727V76.2727H334.617V74.2727H332.617ZM283.896 74.2727H281.896V76.2727H283.896V74.2727ZM283.896 63.4773V61.4773H281.896V63.4773H283.896ZM314.577 63.4773V65.4773H316.608L316.577 63.447L314.577 63.4773ZM313.37 59.358L311.676 60.4209L311.688 60.4404L311.701 60.4596L313.37 59.358ZM310.281 56.5526L309.334 58.3145L309.354 58.3249L309.373 58.3349L310.281 56.5526ZM301.545 56.5526L302.439 58.3414L302.452 58.3351L302.464 58.3285L301.545 56.5526ZM298.349 59.3224L296.695 58.1978L296.687 58.2092L296.68 58.2208L298.349 59.3224ZM297.106 63.4773L295.107 63.4176L295.106 63.4474V63.4773H297.106ZM298.207 79.8125L296.443 80.7553L296.443 80.7553L298.207 79.8125ZM301.367 83.044L300.378 84.7824L300.378 84.7824L301.367 83.044ZM310.032 83.6477L309.399 81.7503L309.387 81.7544L310.032 83.6477ZM312.944 82.0142L314.267 83.5139L314.279 83.5031L314.291 83.4921L312.944 82.0142ZM314.719 79.3864V77.3864H313.33L312.845 78.6889L314.719 79.3864ZM332.617 79.3864L334.591 79.7072L334.968 77.3864H332.617V79.3864ZM328.249 89.2585L329.789 90.535L329.794 90.5286L328.249 89.2585ZM319.123 95.7216L319.87 97.5769L319.876 97.5745L319.123 95.7216ZM305.913 95.9943C300.343 95.9943 295.659 94.9309 291.79 92.8877L289.922 96.4248C294.481 98.8324 299.835 99.9943 305.913 99.9943V95.9943ZM291.802 92.894C287.956 90.83 285.006 87.8918 282.919 84.0436L279.403 85.9507C281.861 90.4832 285.375 93.9844 289.91 96.4185L291.802 92.894ZM282.926 84.0555C280.863 80.1904 279.788 75.4863 279.788 69.8693H275.788C275.788 75.9947 276.962 81.3759 279.397 85.9388L282.926 84.0555ZM279.788 69.8693C279.788 64.5076 280.867 59.9207 282.957 56.046L279.436 54.1472C276.981 58.7006 275.788 63.9621 275.788 69.8693H279.788ZM282.957 56.046C285.052 52.1615 287.992 49.1578 291.805 47.0007L289.836 43.5192C285.363 46.0496 281.887 49.6037 279.436 54.1472L282.957 56.046ZM291.805 47.0007C295.597 44.8557 300.134 43.7443 305.487 43.7443V39.7443C299.571 39.7443 294.33 40.9767 289.836 43.5192L291.805 47.0007ZM305.487 43.7443C309.398 43.7443 312.88 44.3509 315.957 45.5296L317.388 41.7942C313.789 40.4161 309.814 39.7443 305.487 39.7443V43.7443ZM315.957 45.5296C319.038 46.7096 321.641 48.4113 323.796 50.6304L326.666 47.8441C324.085 45.1862 320.983 43.1711 317.388 41.7942L315.957 45.5296ZM323.803 50.6374C325.956 52.8334 327.634 55.5218 328.824 58.7378L332.575 57.3502C331.208 53.6534 329.241 50.4706 326.659 47.8371L323.803 50.6374ZM328.824 58.7378C330.007 61.937 330.617 65.591 330.617 69.7273H334.617C334.617 65.1988 333.949 61.064 332.575 57.3502L328.824 58.7378ZM330.617 69.7273V74.2727H334.617V69.7273H330.617ZM332.617 72.2727H283.896V76.2727H332.617V72.2727ZM285.896 74.2727V63.4773H281.896V74.2727H285.896ZM283.896 65.4773H314.577V61.4773H283.896V65.4773ZM316.577 63.447C316.548 61.5434 316.052 59.7903 315.039 58.2563L311.701 60.4596C312.251 61.293 312.559 62.2862 312.578 63.5076L316.577 63.447ZM315.064 58.295C314.109 56.7731 312.804 55.593 311.188 54.7702L309.373 58.3349C310.361 58.8379 311.116 59.5281 311.676 60.4209L315.064 58.295ZM311.227 54.7906C309.622 53.929 307.834 53.5227 305.913 53.5227V57.5227C307.258 57.5227 308.382 57.803 309.334 58.3145L311.227 54.7906ZM305.913 53.5227C304.027 53.5227 302.253 53.9337 300.625 54.7766L302.464 58.3285C303.488 57.7983 304.626 57.5227 305.913 57.5227V53.5227ZM300.65 54.7637C299.03 55.5738 297.699 56.7212 296.695 58.1978L300.003 60.4471C300.608 59.5563 301.408 58.8571 302.439 58.3414L300.65 54.7637ZM296.68 58.2208C295.67 59.7503 295.164 61.5056 295.107 63.4176L299.105 63.5369C299.143 62.2766 299.465 61.262 300.018 60.4241L296.68 58.2208ZM295.106 63.4773V75.125H299.106V63.4773H295.106ZM295.106 75.125C295.106 77.164 295.535 79.0574 296.443 80.7553L299.971 78.8697C299.41 77.8214 299.106 76.5898 299.106 75.125H295.106ZM296.443 80.7553C297.357 82.4665 298.682 83.8173 300.378 84.7824L302.356 81.3057C301.306 80.7083 300.524 79.9047 299.971 78.8697L296.443 80.7553ZM300.378 84.7824C302.114 85.7702 304.129 86.2159 306.339 86.2159V82.2159C304.666 82.2159 303.366 81.8803 302.356 81.3057L300.378 84.7824ZM306.339 86.2159C307.876 86.2159 309.328 86.0001 310.676 85.541L309.387 81.7544C308.51 82.053 307.501 82.2159 306.339 82.2159V86.2159ZM310.664 85.5451C312.026 85.0913 313.239 84.4212 314.267 83.5139L311.621 80.5145C311.039 81.0277 310.311 81.4466 309.4 81.7504L310.664 85.5451ZM314.291 83.4921C315.331 82.5443 316.104 81.4011 316.594 80.0838L312.845 78.6889C312.578 79.4076 312.167 80.0163 311.596 80.5363L314.291 83.4921ZM314.719 81.3864H332.617V77.3864H314.719V81.3864ZM330.643 79.0656C330.081 82.5268 328.762 85.4847 326.704 87.9885L329.794 90.5286C332.329 87.4452 333.923 83.8216 334.591 79.7072L330.643 79.0656ZM326.71 87.982C324.651 90.4649 321.894 92.437 318.37 93.8687L319.876 97.5745C323.927 95.9286 327.255 93.5919 329.789 90.535L326.71 87.982ZM318.376 93.8663C314.899 95.2657 310.759 95.9943 305.913 95.9943V99.9943C311.151 99.9943 315.818 99.2077 319.87 97.5769L318.376 93.8663ZM360.218 66.3182L358.219 66.2919L358.218 66.305V66.3182H360.218ZM360.218 97V99H362.218V97H360.218ZM340.616 97H338.616V99H340.616V97ZM340.616 42.4545V40.4545H338.616V42.4545H340.616ZM359.224 42.4545H361.224V40.4545H359.224V42.4545ZM359.224 52.8239H357.224V54.8239H359.224V52.8239ZM359.792 52.8239V54.8239H361.221L361.684 53.4718L359.792 52.8239ZM366.042 44.6918L364.948 43.0176L364.942 43.0216L366.042 44.6918ZM386.603 44.4077L385.543 46.1037L385.552 46.1088L385.56 46.1139L386.603 44.4077ZM393.244 51.652L391.461 52.5574L391.466 52.5682L393.244 51.652ZM395.588 62.1989L393.588 62.1869V62.1989H395.588ZM395.588 97V99H397.588V97H395.588ZM375.985 97H373.985V99H375.985V97ZM375.985 66.3182L373.986 66.3006L373.985 66.3094V66.3182H375.985ZM373.926 59.9616L372.433 61.2932L372.439 61.2996L372.445 61.3059L373.926 59.9616ZM363.947 58.7188L364.951 60.4488L364.961 60.4426L363.947 58.7188ZM361.213 61.7017L363.002 62.5961L363.005 62.5896L363.008 62.5831L361.213 61.7017ZM358.218 66.3182V97H362.218V66.3182H358.218ZM360.218 95H340.616V99H360.218V95ZM342.616 97V42.4545H338.616V97H342.616ZM340.616 44.4545H359.224V40.4545H340.616V44.4545ZM357.224 42.4545V52.8239H361.224V42.4545H357.224ZM359.224 54.8239H359.792V50.8239H359.224V54.8239ZM361.684 53.4718C362.728 50.4241 364.538 48.0773 367.142 46.362L364.942 43.0216C361.58 45.2361 359.224 48.3107 357.9 52.1759L361.684 53.4718ZM367.136 46.3659C369.781 44.6373 372.895 43.7443 376.554 43.7443V39.7443C372.21 39.7443 368.316 40.8163 364.948 43.0176L367.136 46.3659ZM376.554 43.7443C380.096 43.7443 383.066 44.5555 385.543 46.1037L387.663 42.7117C384.459 40.7087 380.729 39.7443 376.554 39.7443V43.7443ZM385.56 46.1139C388.099 47.6669 390.061 49.8003 391.461 52.5574L395.027 50.7466C393.302 47.3483 390.837 44.6522 387.647 42.7015L385.56 46.1139ZM391.466 52.5682C392.885 55.3205 393.61 58.5099 393.588 62.1869L397.588 62.2108C397.613 57.9806 396.776 54.1388 395.022 50.7357L391.466 52.5682ZM393.588 62.1989V97H397.588V62.1989H393.588ZM395.588 95H375.985V99H395.588V95ZM377.985 97V66.3182H373.985V97H377.985ZM377.985 66.3357C378.012 63.2886 377.233 60.6294 375.407 58.6174L372.445 61.3059C373.412 62.3715 374.006 63.95 373.986 66.3006L377.985 66.3357ZM375.418 58.6301C373.592 56.5836 371.084 55.6534 368.173 55.6534V59.6534C370.186 59.6534 371.513 60.2621 372.433 61.2932L375.418 58.6301ZM368.173 55.6534C366.261 55.6534 364.491 56.0783 362.933 56.9949L364.961 60.4426C365.818 59.9388 366.866 59.6534 368.173 59.6534V55.6534ZM362.944 56.9887C361.397 57.8858 360.22 59.1857 359.417 60.8204L363.008 62.5831C363.484 61.6135 364.13 60.9248 364.951 60.4488L362.944 56.9887ZM359.424 60.8073C358.619 62.416 358.245 64.267 358.219 66.2919L362.218 66.3445C362.239 64.7709 362.528 63.5442 363.002 62.5961L359.424 60.8073ZM416.344 94.4787L415.365 96.2224L415.372 96.2265L416.344 94.4787ZM406.65 84.6065L404.883 85.5441L404.885 85.5482L406.65 84.6065ZM406.65 55.1676L408.414 56.1093L408.416 56.1052L406.65 55.1676ZM416.344 45.2955L417.316 47.0433L417.324 47.0391L416.344 45.2955ZM445.428 44.6562L444.538 46.4473L444.544 46.4505L444.551 46.4537L445.428 44.6562ZM454.554 52.8239L452.847 53.8663L452.851 53.8714L454.554 52.8239ZM457.821 65.1818V67.1818H459.831L459.821 65.1718L457.821 65.1818ZM439.64 65.1818L437.648 65.3629L437.813 67.1818H439.64V65.1818ZM437.154 58.6477L435.672 59.9908L435.683 60.0029L435.694 60.0148L437.154 58.6477ZM427.353 57.8665L428.562 59.4594L428.571 59.4523L428.581 59.4452L427.353 57.8665ZM424.37 62.3054L426.251 62.9852L426.253 62.9781L424.37 62.3054ZM424.37 77.1847L422.486 77.8573L422.489 77.8645L424.37 77.1847ZM427.353 81.6236L426.125 83.2023L426.134 83.2094L426.143 83.2165L427.353 81.6236ZM435.662 82.0852L436.686 83.8034L436.699 83.7955L436.713 83.7873L435.662 82.0852ZM438.361 79.1023L436.598 78.1578L436.592 78.1695L438.361 79.1023ZM439.64 74.2727V72.2727H437.784L437.645 74.1231L439.64 74.2727ZM457.821 74.2727L459.821 74.3023L459.851 72.2727H457.821V74.2727ZM454.519 86.8438L456.234 87.8727L456.237 87.8677L454.519 86.8438ZM445.463 95.0824L444.573 93.2914L444.569 93.2935L445.463 95.0824ZM431.543 95.9943C425.888 95.9943 421.172 94.8756 417.316 92.7308L415.372 96.2265C419.944 98.7693 425.361 99.9943 431.543 99.9943V95.9943ZM417.324 92.735C413.438 90.5522 410.481 87.5379 408.414 83.6648L404.885 85.5482C407.316 90.1032 410.822 93.6703 415.365 96.2224L417.324 92.735ZM408.416 83.6689C406.344 79.7642 405.276 75.1835 405.276 69.8693H401.276C401.276 75.7294 402.457 80.9735 404.883 85.5441L408.416 83.6689ZM405.276 69.8693C405.276 64.5548 406.344 59.988 408.414 56.1093L404.885 54.2259C402.457 58.7753 401.276 64.0096 401.276 69.8693H405.276ZM408.416 56.1052C410.483 52.2105 413.438 49.2004 417.316 47.0433L415.372 43.5476C410.822 46.078 407.314 49.6494 404.883 54.23L408.416 56.1052ZM417.324 47.0391C421.178 44.8736 425.891 43.7443 431.543 43.7443V39.7443C425.358 39.7443 419.938 40.9825 415.365 43.5518L417.324 47.0391ZM431.543 43.7443C436.653 43.7443 440.964 44.6711 444.538 46.4473L446.318 42.8652C442.08 40.7589 437.133 39.7443 431.543 39.7443V43.7443ZM444.551 46.4537C448.159 48.2141 450.904 50.6837 452.847 53.8663L456.261 51.7814C453.896 47.9091 450.557 44.9336 446.305 42.8588L444.551 46.4537ZM452.851 53.8714C454.785 57.0182 455.799 60.767 455.821 65.1918L459.821 65.1718C459.796 60.1269 458.632 55.6371 456.258 51.7763L452.851 53.8714ZM457.821 63.1818H439.64V67.1818H457.821V63.1818ZM441.631 65.0007C441.347 61.8695 440.417 59.2066 438.614 57.2806L435.694 60.0148C436.684 61.0718 437.412 62.765 437.648 65.3629L441.631 65.0007ZM438.636 57.3047C436.857 55.3414 434.528 54.375 431.827 54.375V58.375C433.482 58.375 434.705 58.9237 435.672 59.9908L438.636 57.3047ZM431.827 54.375C429.703 54.375 427.773 55.0054 426.125 56.2878L428.581 59.4452C429.489 58.7389 430.542 58.375 431.827 58.375V54.375ZM426.143 56.2736C424.472 57.5425 423.287 59.3918 422.486 61.6327L426.253 62.9781C426.873 61.2417 427.677 60.1317 428.562 59.4594L426.143 56.2736ZM422.489 61.6256C421.674 63.8801 421.304 66.6034 421.304 69.7273H425.304C425.304 66.8853 425.645 64.6606 426.251 62.9852L422.489 61.6256ZM421.304 69.7273C421.304 72.8525 421.674 75.5838 422.486 77.8573L426.253 76.512C425.645 74.8083 425.304 72.568 425.304 69.7273H421.304ZM422.489 77.8645C423.291 80.0831 424.473 81.9176 426.125 83.2023L428.581 80.0449C427.675 79.3409 426.869 78.2161 426.251 76.5048L422.489 77.8645ZM426.143 83.2165C427.792 84.4682 429.715 85.0795 431.827 85.0795V81.0795C430.53 81.0795 429.47 80.7203 428.562 80.0307L426.143 83.2165ZM431.827 85.0795C433.589 85.0795 435.229 84.6714 436.686 83.8034L434.639 80.367C433.87 80.8249 432.953 81.0795 431.827 81.0795V85.0795ZM436.713 83.7873C438.166 82.8904 439.299 81.6125 440.13 80.0351L436.592 78.1695C436.051 79.1962 435.384 79.907 434.612 80.3832L436.713 83.7873ZM440.124 80.0467C440.996 78.4195 441.476 76.5238 441.634 74.4223L437.645 74.1231C437.519 75.8095 437.147 77.1336 436.598 78.1578L440.124 80.0467ZM439.64 76.2727H457.821V72.2727H439.64V76.2727ZM455.822 74.2432C455.755 78.7536 454.726 82.59 452.801 85.8198L456.237 87.8677C458.573 83.9479 459.746 79.4036 459.821 74.3023L455.822 74.2432ZM452.804 85.8148C450.88 89.0205 448.157 91.5106 444.573 93.2914L446.354 96.8734C450.583 94.7716 453.896 91.7693 456.234 87.8727L452.804 85.8148ZM444.569 93.2935C441.023 95.0663 436.704 95.9943 431.543 95.9943V99.9943C437.177 99.9943 442.138 98.9811 446.358 96.8712L444.569 93.2935ZM476.989 94.6562L476.043 96.4185L476.055 96.4248L476.989 94.6562ZM467.294 84.9972L465.53 85.9389L465.536 85.9507L467.294 84.9972ZM467.33 55.0966L469.09 56.046L469.09 56.046L467.33 55.0966ZM476.953 45.2599L477.938 47.0007L477.938 47.0007L476.953 45.2599ZM502.805 43.6619L503.521 41.7942L503.521 41.7942L502.805 43.6619ZM511.364 49.2372L509.929 50.6304L509.935 50.6374L511.364 49.2372ZM516.832 58.044L514.957 58.7378L514.957 58.7378L516.832 58.044ZM518.75 74.2727V76.2727H520.75V74.2727H518.75ZM470.028 74.2727H468.028V76.2727H470.028V74.2727ZM470.028 63.4773V61.4773H468.028V63.4773H470.028ZM500.71 63.4773V65.4773H502.741L502.71 63.447L500.71 63.4773ZM499.503 59.358L497.809 60.4209L497.821 60.4404L497.834 60.4596L499.503 59.358ZM496.413 56.5526L495.467 58.3145L495.486 58.3249L495.506 58.3349L496.413 56.5526ZM487.678 56.5526L488.572 58.3414L488.585 58.3351L488.597 58.3285L487.678 56.5526ZM484.482 59.3224L482.828 58.1978L482.82 58.2092L482.812 58.2208L484.482 59.3224ZM483.239 63.4773L481.24 63.4176L481.239 63.4474V63.4773H483.239ZM484.339 79.8125L482.576 80.7553L482.576 80.7553L484.339 79.8125ZM487.5 83.044L486.511 84.7824L486.511 84.7824L487.5 83.044ZM496.165 83.6477L495.532 81.7503L495.52 81.7544L496.165 83.6477ZM499.077 82.0142L500.4 83.5139L500.412 83.5031L500.424 83.4921L499.077 82.0142ZM500.852 79.3864V77.3864H499.462L498.978 78.6889L500.852 79.3864ZM518.75 79.3864L520.724 79.7072L521.101 77.3864H518.75V79.3864ZM514.382 89.2585L515.922 90.535L515.927 90.5286L514.382 89.2585ZM505.256 95.7216L506.002 97.5769L506.008 97.5745L505.256 95.7216ZM492.045 95.9943C486.476 95.9943 481.792 94.9309 477.923 92.8877L476.055 96.4248C480.614 98.8324 485.968 99.9943 492.045 99.9943V95.9943ZM477.934 92.894C474.089 90.83 471.139 87.8918 469.052 84.0436L465.536 85.9507C467.994 90.4832 471.508 93.9844 476.043 96.4185L477.934 92.894ZM469.058 84.0555C466.996 80.1904 465.92 75.4863 465.92 69.8693H461.92C461.92 75.9947 463.094 81.3759 465.53 85.9388L469.058 84.0555ZM465.92 69.8693C465.92 64.5076 467 59.9207 469.09 56.046L465.569 54.1472C463.114 58.7006 461.92 63.9621 461.92 69.8693H465.92ZM469.09 56.046C471.185 52.1615 474.125 49.1578 477.938 47.0007L475.968 43.5192C471.495 46.0496 468.02 49.6037 465.569 54.1472L469.09 56.046ZM477.938 47.0007C481.73 44.8557 486.266 43.7443 491.619 43.7443V39.7443C485.703 39.7443 480.463 40.9767 475.968 43.5192L477.938 47.0007ZM491.619 43.7443C495.531 43.7443 499.012 44.3509 502.09 45.5296L503.521 41.7942C499.922 40.4161 495.946 39.7443 491.619 39.7443V43.7443ZM502.09 45.5296C505.171 46.7096 507.774 48.4113 509.929 50.6304L512.799 47.8441C510.218 45.1862 507.116 43.1711 503.521 41.7942L502.09 45.5296ZM509.935 50.6374C512.088 52.8334 513.767 55.5218 514.957 58.7378L518.708 57.3502C517.341 53.6534 515.374 50.4706 512.792 47.8371L509.935 50.6374ZM514.957 58.7378C516.14 61.937 516.75 65.591 516.75 69.7273H520.75C520.75 65.1988 520.082 61.064 518.708 57.3502L514.957 58.7378ZM516.75 69.7273V74.2727H520.75V69.7273H516.75ZM518.75 72.2727H470.028V76.2727H518.75V72.2727ZM472.028 74.2727V63.4773H468.028V74.2727H472.028ZM470.028 65.4773H500.71V61.4773H470.028V65.4773ZM502.71 63.447C502.681 61.5434 502.185 59.7903 501.172 58.2563L497.834 60.4596C498.384 61.293 498.692 62.2862 498.71 63.5076L502.71 63.447ZM501.197 58.295C500.242 56.7731 498.937 55.593 497.321 54.7702L495.506 58.3349C496.494 58.8379 497.248 59.5281 497.809 60.4209L501.197 58.295ZM497.36 54.7906C495.755 53.929 493.967 53.5227 492.045 53.5227V57.5227C493.391 57.5227 494.515 57.803 495.467 58.3145L497.36 54.7906ZM492.045 53.5227C490.16 53.5227 488.386 53.9337 486.758 54.7766L488.597 58.3285C489.621 57.7983 490.759 57.5227 492.045 57.5227V53.5227ZM486.783 54.7637C485.163 55.5738 483.832 56.7212 482.828 58.1978L486.135 60.4471C486.741 59.5563 487.541 58.8571 488.572 58.3414L486.783 54.7637ZM482.812 58.2208C481.803 59.7503 481.297 61.5056 481.24 63.4176L485.238 63.5369C485.275 62.2766 485.598 61.262 486.151 60.4241L482.812 58.2208ZM481.239 63.4773V75.125H485.239V63.4773H481.239ZM481.239 75.125C481.239 77.164 481.668 79.0574 482.576 80.7553L486.103 78.8697C485.543 77.8214 485.239 76.5898 485.239 75.125H481.239ZM482.576 80.7553C483.49 82.4665 484.815 83.8173 486.511 84.7824L488.489 81.3057C487.439 80.7083 486.657 79.9047 486.103 78.8697L482.576 80.7553ZM486.511 84.7824C488.247 85.7702 490.262 86.2159 492.472 86.2159V82.2159C490.798 82.2159 489.499 81.8803 488.489 81.3057L486.511 84.7824ZM492.472 86.2159C494.008 86.2159 495.461 86.0001 496.809 85.541L495.52 81.7544C494.643 82.053 493.634 82.2159 492.472 82.2159V86.2159ZM496.797 85.5451C498.159 85.0913 499.372 84.4212 500.4 83.5139L497.753 80.5145C497.172 81.0277 496.444 81.4466 495.532 81.7504L496.797 85.5451ZM500.424 83.4921C501.464 82.5443 502.237 81.4011 502.727 80.0838L498.978 78.6889C498.71 79.4076 498.3 80.0163 497.729 80.5363L500.424 83.4921ZM500.852 81.3864H518.75V77.3864H500.852V81.3864ZM516.776 79.0656C516.213 82.5268 514.895 85.4847 512.837 87.9885L515.927 90.5286C518.462 87.4452 520.056 83.8216 520.724 79.7072L516.776 79.0656ZM512.842 87.982C510.784 90.4649 508.027 92.437 504.503 93.8687L506.008 97.5745C510.06 95.9286 513.387 93.5919 515.922 90.535L512.842 87.982ZM504.509 93.8663C501.032 95.2657 496.892 95.9943 492.045 95.9943V99.9943C497.284 99.9943 501.951 99.2077 506.002 97.5769L504.509 93.8663Z" fill="#EBEBEB" mask="url(#path-1-outside-1_549_757)"/>
</svg>
