<svg width="179" height="154" viewBox="0 0 179 154" fill="none" xmlns="http://www.w3.org/2000/svg">
<path d="M105.744 134.138L118.86 120.031L119.355 139.335L105.991 153.442L105.744 134.138Z" fill="#B79259"/>
<path d="M125.542 121.021L138.907 106.914L139.402 125.723L126.037 139.83L125.542 121.021Z" fill="#B79259"/>
<path d="M-18 24.0062L-4.6357 9.89941L97.0815 37.8655L83.7172 52.2197L-18 24.0062Z" fill="#CCB189"/>
<path d="M145.589 107.409L158.706 93.3024L159.201 112.606L145.837 126.713L145.589 107.409Z" fill="#B79259"/>
<path d="M145.342 88.3526L158.706 74.2458L178.753 79.6906L165.388 94.0448L145.342 88.3526Z" fill="#CCB189"/>
<path d="M165.388 94.0447L178.753 79.6904L179 98.9944L165.636 113.101L165.388 94.0447Z" fill="#B79259"/>
<path d="M124.305 63.3566L137.67 49.2499L158.211 54.9421L144.847 69.0488L124.305 63.3566Z" fill="#CCB189"/>
<path d="M144.847 69.0487L158.211 54.9419L158.706 74.2459L145.342 88.3527L144.847 69.0487Z" fill="#B79259"/>
<path d="M103.764 38.8552L117.128 24.7484L137.422 30.1931L124.057 44.5474L103.764 38.8552Z" fill="#CCB189"/>
<path d="M124.057 44.5476L137.422 30.1934L137.669 49.2499L124.305 63.3566L124.057 44.5476Z" fill="#B79259"/>
<path d="M83.222 14.1066L96.3389 -0.00012207L116.633 5.44459L103.269 19.5514L83.222 14.1066Z" fill="#CCB189"/>
<path d="M103.269 19.5512L116.633 5.44446L117.128 24.7485L103.764 38.8552L103.269 19.5512Z" fill="#B79259"/>
<path d="M103.269 19.5512L103.764 38.8552L124.058 44.5474L124.305 63.3564L144.847 69.0486L145.341 88.3526L165.388 94.0448L165.635 113.101L145.589 107.409L145.836 126.713L125.543 121.021L126.038 139.83L105.744 134.138L105.991 153.442L85.6971 147.749L84.9546 109.884L-16.7626 81.6704L-18 24.0059L83.7172 52.2195L83.2222 14.1064L103.269 19.5512Z" fill="#E1D0B9"/>
</svg>
